Source-HROTx_VROTn.ufo
<glyph name="dollar" format="2">
  <advance width="382"/>
  <unicode hex="0024"/>
  <outline>
    <contour>
      <point x="236" y="258" type="move" smooth="yes" name="NECIRFSN"/>
      <point x="275" y="248" name="PRVGJEEL"/>
      <point x="312" y="243" name="PXEOTDVG"/>
      <point x="343" y="243" type="curve" smooth="yes" name="REIXWDSO"/>
      <point x="420" y="243" name="XGXSCXPJ"/>
      <point x="448" y="273" name="JBPXHLOL"/>
      <point x="408" y="329" type="curve" smooth="yes" name="CTMFAIGV"/>
      <point x="372" y="380" name="FQASTWDT"/>
      <point x="302" y="403" name="AKRKJFLV"/>
      <point x="232" y="427" type="curve" smooth="yes" name="HDYDQIRE"/>
      <point x="161" y="450" name="MSVJGICY"/>
      <point x="91" y="474" name="SPRZBXFK"/>
      <point x="54" y="526" type="curve" smooth="yes" name="MJKEUMYP"/>
      <point x="17" y="579" name="QCMUVOCF"/>
      <point x="45" y="609" name="YRMPUUOY"/>
      <point x="108" y="609" type="curve" smooth="yes" name="AJTTCQEV"/>
      <point x="143" y="609" name="EWTOXQXZ"/>
      <point x="175" y="604" name="TPAIVTBL"/>
      <point x="209" y="595" type="curve" smooth="yes" name="VBYTACFI"/>
    </contour>
    <contour>
      <point x="108" y="609" type="move" name="UKMSLBXV"/>
      <point x="58" y="687" type="line" name="IYODPCTF"/>
    </contour>
    <contour>
      <point x="397" y="159" type="move" name="TWHGEVGS"/>
      <point x="343" y="243" type="line" name="BBLAMYVY"/>
    </contour>
    <contour>
      <point x="175" y="564" type="move" name="XYGWLLJZ"/>
      <point x="209" y="595" type="line" name="KMXAMPOA"/>
      <point x="257" y="448" type="line" name="NRFSNWVX"/>
    </contour>
    <contour>
      <point x="171" y="147" type="move" name="SFQYRYIF"/>
      <point x="236" y="258" type="line" name="CJMHXZGC"/>
      <point x="88" y="265" type="line" name="NKUKGJGC"/>
    </contour>
    <contour>
      <point x="-66" y="660" type="move" name="FCLRCFFV"/>
      <point x="58" y="687" type="line" name="BGHSJBWT"/>
      <point x="25" y="660" type="line" name="WTGFQFIL"/>
    </contour>
    <contour>
      <point x="420" y="45" type="move" name="ZOVJRSXG"/>
      <point x="397" y="159" type="line" name="AQYKFLRN"/>
      <point x="329" y="45" type="line" name="ZCKQMTVC"/>
    </contour>
    <contour>
      <point x="-12" y="577" type="move" name="NWSRMZDD"/>
      <point x="108" y="609" type="line" name="ZJBCMVKF"/>
      <point x="75" y="581" type="line" name="ITAWIOHQ"/>
    </contour>
    <contour>
      <point x="364" y="130" type="move" name="EJAGNTCM"/>
      <point x="343" y="243" type="line" name="VOGTWQNL"/>
      <point x="276" y="130" type="line" name="BODNBDBT"/>
    </contour>
    <contour>
      <point x="329" y="45" type="line" name="BKWLBLLT"/>
      <point x="420" y="45" type="line" name="NOTFXLXY"/>
      <point x="364" y="130" type="line" name="CPVULRXE"/>
      <point x="439" y="142" name="XCMHNQLO"/>
      <point x="462" y="186" name="FFEEDAYQ"/>
      <point x="407" y="264" type="curve" smooth="yes" name="WJHCEXTZ"/>
      <point x="350" y="345" name="SBRRR"/>
      <point x="258" y="377" name="INCUR"/>
      <point x="180" y="401" type="curve" smooth="yes" name="OOLLA"/>
      <point x="122" y="420" name="YAXOF"/>
      <point x="72" y="434" name="WODUP"/>
      <point x="53" y="461" type="curve" smooth="yes" name="JBOYESYV"/>
      <point x="39" y="481" name="TBEIGFJY"/>
      <point x="50" y="495" name="SUBRQTZB"/>
      <point x="94" y="495" type="curve" smooth="yes" name="MVRICSHA"/>
      <point x="135" y="495" name="QYVUGSPM"/>
      <point x="196" y="479" name="UQPNVJLH"/>
      <point x="257" y="448" type="curve" name="QAVDIZPQ"/>
      <point x="175" y="564" type="line" name="VYDFDBSS"/>
      <point x="138" y="572" name="TGRJDBKP"/>
      <point x="105" y="578" name="ZSEAWUBW"/>
      <point x="75" y="581" type="curve" name="BJSHFFXK"/>
      <point x="25" y="660" type="line" name="YZRAKCKY"/>
      <point x="-66" y="660" type="line" name="USITXNBV"/>
      <point x="-12" y="577" type="line" name="IJKGKGHR"/>
      <point x="-78" y="564" name="HKRNXVTT"/>
      <point x="-95" y="519" name="RTKGQDDC"/>
      <point x="-46" y="449" type="curve" smooth="yes" name="SHOTZACG"/>
      <point x="12" y="367" name="JIDGU"/>
      <point x="105" y="336" name="REDME"/>
      <point x="182" y="312" type="curve" smooth="yes" name="KS06I"/>
      <point x="241" y="293" name="CONLY"/>
      <point x="290" y="280" name="JIDUL"/>
      <point x="309" y="254" type="curve" smooth="yes" name="LXLXQQPV"/>
      <point x="325" y="232" name="ASKIFZTV"/>
      <point x="313" y="217" name="PVDYLRZX"/>
      <point x="265" y="217" type="curve" smooth="yes" name="YOMBWZXL"/>
      <point x="219" y="217" name="TKFQPHYL"/>
      <point x="152" y="232" name="EVQEKOSK"/>
      <point x="88" y="265" type="curve" name="QXJSDSOQ"/>
      <point x="171" y="147" type="line" name="RWBFNKOU"/>
      <point x="209" y="139" name="MYZNIBQO"/>
      <point x="244" y="133" name="HOJGALDH"/>
      <point x="276" y="130" type="curve" name="AFVPFKYC"/>
    </contour>
  </outline>
</glyph>
<glyph name="percent" format="2">
  <advance width="723"/>
  <unicode hex="0025"/>
  <outline>
    <contour>
      <point x="217" y="408" type="curve" smooth="yes" name="KUGBPQBW"/>
      <point x="161" y="408" name="KJGDDUFS"/>
      <point x="90" y="456" name="YKURJUKD"/>
      <point x="42" y="524" type="curve" smooth="yes" name="EWBMYSLZ"/>
      <point x="-5" y="592" name="ZQOQVBZL"/>
      <point x="-2" y="639" name="GPWFMEMA"/>
      <point x="54" y="639" type="curve" smooth="yes" name="LRYHTYPC"/>
      <point x="110" y="639" name="UVBVNCVO"/>
      <point x="181" y="592" name="TGORLLIL"/>
      <point x="229" y="524" type="curve" smooth="yes" name="FAZWTZFU"/>
      <point x="277" y="456" name="HNTKSDLP"/>
      <point x="273" y="408" name="MQSPLMXH"/>
    </contour>
    <contour>
      <point x="739" y="215" type="curve" smooth="yes" name="CUDEBJSK"/>
      <point x="683" y="215" name="HVNHBCOL"/>
      <point x="612" y="263" name="ZTCBRFIR"/>
      <point x="564" y="331" type="curve" smooth="yes" name="AXDDEXFY"/>
      <point x="516" y="398" name="VVMTGQVP"/>
      <point x="520" y="445" name="AIXFFNKA"/>
      <point x="576" y="445" type="curve" smooth="yes" name="ISPOOYAA"/>
      <point x="633" y="445" name="KSXCRKEB"/>
      <point x="703" y="398" name="AZNNCQFO"/>
      <point x="751" y="331" type="curve" smooth="yes" name="UUVDQZDR"/>
      <point x="799" y="263" name="VDNPRDLC"/>
      <point x="796" y="215" name="TSQCYYJB"/>
    </contour>
    <contour>
      <point x="377" y="630" type="move" name="CVGMOIPZ"/>
      <point x="416" y="223" type="line" name="HAMZUUTH"/>
    </contour>
    <contour>
      <point x="414" y="116" type="move" name="JRLMZRMB"/>
      <point x="416" y="223" type="line" name="VWUMAPUP"/>
      <point x="324" y="116" type="line" name="XJBUXPFQ"/>
    </contour>
    <contour>
      <point x="278" y="596" type="move" name="ECUUNSVW"/>
      <point x="377" y="630" type="line" name="WZGBHWZC"/>
      <point x="368" y="596" type="line" name="SFLOLYUF"/>
    </contour>
    <contour>
      <point x="662" y="182" type="curve" smooth="yes" name="MSFKSKOP"/>
      <point x="693" y="182" name="CIMHWKSQ"/>
      <point x="691" y="213" name="JPOQANLN"/>
      <point x="657" y="260" type="curve" smooth="yes" name="RDWQAWZG"/>
      <point x="624" y="307" name="IKJETUJQ"/>
      <point x="584" y="337" name="DZFIBWCI"/>
      <point x="553" y="337" type="curve" smooth="yes" name="HPYLOHVK"/>
      <point x="522" y="337" name="QKKVMTOQ"/>
      <point x="525" y="307" name="ZXCQYKGE"/>
      <point x="558" y="260" type="curve" smooth="yes" name="YALIRFMD"/>
      <point x="592" y="213" name="ZCCVZLSJ"/>
      <point x="631" y="182" name="GYLVZNKV"/>
    </contour>
    <contour>
      <point x="716" y="106" type="curve" smooth="yes" name="THCZGZFH"/>
      <point x="635" y="106" name="IQUWCWES"/>
      <point x="532" y="172" name="RDJLGYFO"/>
      <point x="470" y="260" type="curve" smooth="yes" name="FVHIUQVY"/>
      <point x="409" y="347" name="DPNGXCIY"/>
      <point x="418" y="413" name="MQHOBBJK"/>
      <point x="499" y="413" type="curve" smooth="yes" name="UUSJLBVF"/>
      <point x="581" y="413" name="JZEOWSLK"/>
      <point x="683" y="347" name="BYJXJADW"/>
      <point x="744" y="260" type="curve" smooth="yes" name="BTNKYMHS"/>
      <point x="806" y="172" name="PNHVJMEX"/>
      <point x="798" y="106" name="BWFLEURP"/>
    </contour>
    <contour>
      <point x="140" y="376" type="curve" smooth="yes" name="LXVYMRGF"/>
      <point x="171" y="376" name="NBCLKEPC"/>
      <point x="169" y="406" name="IULYNBBL"/>
      <point x="135" y="454" type="curve" smooth="yes" name="EPLQHUUK"/>
      <point x="102" y="501" name="CXHKLVHG"/>
      <point x="61" y="531" name="TZUQKYAD"/>
      <point x="30" y="531" type="curve" smooth="yes" name="KRAJFKFA"/>
      <point x="-1" y="531" name="XKIIVEVZ"/>
      <point x="3" y="501" name="QQEVPAZG"/>
      <point x="36" y="454" type="curve" smooth="yes" name="YOCVQFZZ"/>
      <point x="70" y="406" name="ITOLJNDG"/>
      <point x="109" y="376" name="SHLJQRHC"/>
    </contour>
    <contour>
      <point x="194" y="299" type="curve" smooth="yes" name="MQDLLIAQ"/>
      <point x="112" y="299" name="DZCVZIRF"/>
      <point x="10" y="366" name="SWERFMPM"/>
      <point x="-52" y="454" type="curve" smooth="yes" name="LVAGMPGK"/>
      <point x="-114" y="541" name="OAZEYJPT"/>
      <point x="-105" y="606" name="CUWPIUYJ"/>
      <point x="-23" y="606" type="curve" smooth="yes" name="XCIEKHFF"/>
      <point x="58" y="606" name="FNJARTXM"/>
      <point x="160" y="541" name="EBPDOSDY"/>
      <point x="222" y="454" type="curve" smooth="yes" name="YVYXQCLO"/>
      <point x="284" y="366" name="ZRDLINEN"/>
      <point x="275" y="299" name="QWEPAPZE"/>
    </contour>
    <contour>
      <point x="324" y="116" type="line" name="CPMECJON"/>
      <point x="414" y="116" type="line" name="PEPYQPOY"/>
      <point x="368" y="596" type="line" name="ZQFKFAXG"/>
      <point x="278" y="596" type="line" name="OPUSLGDN"/>
    </contour>
  </outline>
</glyph>
<glyph name="comma" format="2">
  <advance width="194"/>
  <unicode hex="002C"/>
  <outline>
    <contour>
      <point x="238" y="24" type="move" smooth="yes" name="JUNWJFMJ"/>
      <point x="281" y="93" name="WEWTMJJV"/>
      <point x="283" y="176" name="AEXINPXG"/>
      <point x="260" y="256" type="curve" name="AZXRXXIH"/>
    </contour>
    <contour>
      <point x="117" y="229" type="move" name="XJBUXPFQ"/>
      <point x="260" y="256" type="line" name="VWUMAPUP"/>
      <point x="235" y="229" type="line" name="JRLMZRMB"/>
    </contour>
    <contour>
      <point x="117" y="229" type="curve" name="CVWVYNXN"/>
      <point x="235" y="229" type="line" name="MVEQNUGB"/>
      <point x="298" y="151" name="BOOQQJWK"/>
      <point x="327" y="59" name="IEIBIZAB"/>
      <point x="238" y="24" type="curve" name="RZOJSMYH"/>
      <point x="219" y="108" name="AVDFDHIB"/>
      <point x="179" y="167" name="LTXGFGVK"/>
    </contour>
  </outline>
</glyph>
<glyph name="zero" format="2">
  <advance width="456"/>
  <unicode hex="0030"/>
  <outline>
    <contour>
      <point x="116" y="635" type="curve" smooth="yes" name="YSYMPFLY"/>
      <point x="24" y="635" name="SQOGDJCA"/>
      <point x="27" y="550" name="WRXNSMAD"/>
      <point x="113" y="427" type="curve" smooth="yes" name="NXWVDXWP"/>
      <point x="200" y="305" name="XHHWMLFW"/>
      <point x="318" y="219" name="CBDFDWHV"/>
      <point x="410" y="219" type="curve" smooth="yes" name="YMGNFPWL"/>
      <point x="502" y="219" name="DWBIVIDI"/>
      <point x="499" y="304" name="FVMWCOJJ"/>
      <point x="413" y="426" type="curve" smooth="yes" name="WMGCECUC"/>
      <point x="326" y="548" name="DTENAZOV"/>
      <point x="208" y="635" name="LXHEUTHF"/>
    </contour>
    <contour>
      <point x="98" y="519" type="curve" smooth="yes" name="VXBKCWUQ"/>
      <point x="36" y="519" name="AGLLIOGN"/>
      <point x="47" y="456" name="YBBXPJIO"/>
      <point x="117" y="357" type="curve" smooth="yes" name="TVWVGKMA"/>
      <point x="188" y="257" name="BLRMXVSQ"/>
      <point x="267" y="193" name="JHQZYTXH"/>
      <point x="329" y="193" type="curve" smooth="yes" name="GCAENPSZ"/>
      <point x="390" y="193" name="NSQWIQYF"/>
      <point x="379" y="256" name="WLFJJWMQ"/>
      <point x="309" y="355" type="curve" smooth="yes" name="EHUAJRFS"/>
      <point x="238" y="455" name="GXIKBGOC"/>
      <point x="159" y="519" name="RCXKJTBL"/>
    </contour>
    <contour>
      <point x="35" y="608" type="curve" smooth="yes" name="DZOKLWEP"/>
      <point x="-87" y="608" name="WYRTPWOB"/>
      <point x="-94" y="502" name="UEYCFKFZ"/>
      <point x="9" y="357" type="curve" smooth="yes" name="TNANPGBN"/>
      <point x="112" y="211" name="OTORNXQZ"/>
      <point x="269" y="104" name="YSCFCDVL"/>
      <point x="391" y="104" type="curve" smooth="yes" name="PQXZWUGX"/>
      <point x="513" y="104" name="MXHMHTDU"/>
      <point x="520" y="210" name="JXRWVUXX"/>
      <point x="417" y="355" type="curve" smooth="yes" name="LLZYCAYW"/>
      <point x="314" y="501" name="NBCGVXDW"/>
      <point x="157" y="608" name="YCKEWFZN"/>
    </contour>
  </outline>
</glyph>
<glyph name="three" format="2">
  <advance width="369"/>
  <unicode hex="0033"/>
  <outline>
    <contour>
      <point x="-8" y="616" type="move" name="BUCKYNQF"/>
      <point x="34" y="621" name="IEDFFWTB"/>
      <point x="87" y="623" name="QLLDDDJU"/>
      <point x="165" y="623" type="curve" name="VQBJZPZE"/>
      <point x="167" y="445" type="line" name="PPBHXDKD"/>
      <point x="273" y="439" name="VIHMQAZR"/>
      <point x="353" y="394" name="SSFAUMJM"/>
      <point x="398" y="331" type="curve" smooth="yes" name="LVFWMTJP"/>
      <point x="447" y="262" name="IZYCKUEY"/>
      <point x="417" y="220" name="BFGHQMYT"/>
      <point x="337" y="220" type="curve" smooth="yes" name="JWFQFDCG"/>
      <point x="313" y="220" name="OHBAHWOA"/>
      <point x="285" y="225" name="WXAYRTLJ"/>
      <point x="256" y="234" type="curve" smooth="yes" name="WCTXHNDJ"/>
    </contour>
    <contour>
      <point x="-60" y="486" type="move" name="GWNMZKEQ"/>
      <point x="-8" y="616" type="line" name="UUZKONNZ"/>
      <point x="-138" y="596" type="line" name="SZFPBQNR"/>
    </contour>
    <contour>
      <point x="189" y="126" type="move" name="NRLGLPAI"/>
      <point x="256" y="234" type="line" name="DSXDBTPB"/>
      <point x="107" y="241" type="line" name="CASTZYJZ"/>
    </contour>
    <contour>
      <point x="64" y="507" type="move" name="TOVJRIMR"/>
      <point x="165" y="623" type="line" name="SCAVZQWZ"/>
      <point x="167" y="596" type="line" name="QZWMEQHY"/>
    </contour>
    <contour>
      <point x="65" y="336" type="move" name="HMPJKLJJ"/>
      <point x="167" y="445" type="line" name="TWBTKUNM"/>
      <point x="169" y="408" type="line" name="KPRIXVIT"/>
    </contour>
    <contour>
      <point x="260" y="194" type="curve" smooth="yes" name="YSXYOSQR"/>
      <point x="219" y="194" name="DFFLQVKS"/>
      <point x="167" y="212" name="UEXGCCIH"/>
      <point x="107" y="241" type="curve" name="UOKGUDDG"/>
      <point x="189" y="126" type="line" name="KVVJKIRM"/>
      <point x="380" y="71" name="JHRQHLAM"/>
      <point x="491" y="133" name="HWFLXGWD"/>
      <point x="400" y="263" type="curve" smooth="yes" name="RSNOXDBI"/>
      <point x="348" y="336" name="OWJDTDHS"/>
      <point x="260" y="391" name="CTAMSDBW"/>
      <point x="169" y="408" type="curve" name="SAUAZPQB"/>
      <point x="167" y="596" type="line" name="NYCMUUMG"/>
      <point x="-138" y="596" type="line" name="WAKBOCCT"/>
      <point x="-60" y="486" type="line" name="EUSXDGZE"/>
      <point x="-46" y="497" name="LVCGDNWL"/>
      <point x="-20" y="505" name="VSUFLHNP"/>
      <point x="64" y="507" type="curve" name="IHTEHYDY"/>
      <point x="65" y="336" type="line" name="UCDLGJUZ"/>
      <point x="195" y="338" name="JPGCBEEL"/>
      <point x="260" y="308" name="QOHCKDYX"/>
      <point x="296" y="256" type="curve" smooth="yes" name="UKCAVSOX"/>
      <point x="324" y="217" name="RRVWFBJH"/>
      <point x="313" y="194" name="LVNXDNDW"/>
    </contour>
  </outline>
</glyph>
<glyph name="four" format="2">
  <advance width="409"/>
  <unicode hex="0034"/>
  <outline>
    <contour>
      <point x="498" y="116" type="move" name="JRLMZRMB"/>
      <point x="449" y="230" type="line" name="VWUMAPUP"/>
      <point x="361" y="116" type="line" name="XJBUXPFQ"/>
    </contour>
    <contour>
      <point x="447" y="336" type="move" name="QIOMSUFF"/>
      <point x="166" y="336" type="line" name="RGIYXXVR"/>
      <point x="112" y="623" type="line" name="SHFCORXJ"/>
      <point x="171" y="623" type="line" name="OOCXLPVA"/>
      <point x="449" y="230" type="line" name="VSVEQYLG"/>
    </contour>
    <contour>
      <point x="8" y="596" type="move" name="VAAVNZDS"/>
      <point x="112" y="623" type="line" name="GNCUJRFY"/>
      <point x="124" y="476" type="line" name="VSSJMGMR"/>
      <point x="171" y="623" type="line" name="ZADHSTAR"/>
      <point x="158" y="596" type="line" name="TUBDPHXP"/>
    </contour>
    <contour>
      <point x="74" y="225" type="move" name="SSRONAHD"/>
      <point x="166" y="336" type="line" name="IKHRTAIB"/>
      <point x="158" y="306" type="line" name="RJBDGNDW"/>
    </contour>
    <contour>
      <point x="401" y="321" type="move" name="UBWSCXEJ"/>
      <point x="447" y="336" type="line" name="OGPDTMUS"/>
      <point x="480" y="210" type="line" name="JMWBMAFS"/>
    </contour>
    <contour>
      <point x="246" y="306" type="move" name="SWGJXBTY"/>
      <point x="374" y="336" type="line" name="YXSFFQNX"/>
      <point x="405" y="224" type="line" name="RLJWYXMQ"/>
    </contour>
    <contour>
      <point x="301" y="225" type="move" name="XFBKTQZH"/>
      <point x="374" y="336" type="line" name="BWDROCBT"/>
      <point x="344" y="307" type="line" name="HCLWPYSV"/>
    </contour>
    <contour>
      <point x="361" y="116" type="curve" name="GDEAQBFW"/>
      <point x="498" y="116" type="line" name="VAQVUXPI"/>
      <point x="476" y="135" name="YAVWDUFE"/>
      <point x="454" y="158" name="LGGPVBEC"/>
      <point x="405" y="224" type="curve" name="NWVEGQRD"/>
      <point x="442" y="222" name="LEOGLIXM"/>
      <point x="458" y="218" name="VNJOHOZF"/>
      <point x="480" y="210" type="curve" name="LLWYEWUA"/>
      <point x="401" y="321" type="line" name="QTVOHEFS"/>
      <point x="391" y="313" name="ZBWLGLHI"/>
      <point x="380" y="309" name="LGXEELDG"/>
      <point x="344" y="307" type="curve" name="BNEOXNZG"/>
      <point x="201" y="508" name="HPTBPTJJ"/>
      <point x="165" y="565" name="XJYGNHFA"/>
      <point x="158" y="596" type="curve" name="BPUPWLFV"/>
      <point x="8" y="596" type="line" name="PSVSFONF"/>
      <point x="74" y="225" type="line" name="XUDZAOXY"/>
      <point x="301" y="225" type="line" name="DYCUGVGN"/>
      <point x="346" y="158" name="VBDHTPWX"/>
      <point x="357" y="135" name="RTBATUTP"/>
    </contour>
    <contour>
      <point x="158" y="306" type="line" name="RTMYBNEL"/>
      <point x="124" y="476" type="line" name="XLHJJIDK"/>
      <point x="155" y="434" name="BLCRWLTX"/>
      <point x="206" y="362" name="ZYPVQAGE"/>
      <point x="246" y="306" type="curve" name="XLQKIGNB"/>
    </contour>
  </outline>
</glyph>
<glyph name="six" format="2">
  <advance width="404"/>
  <unicode hex="0036"/>
  <outline>
    <contour>
      <point x="313" y="236" type="move" name="SQKKVBEU"/>
      <point x="267" y="258" name="DHUATODE"/>
      <point x="224" y="294" name="MCMKNWQU"/>
      <point x="193" y="338" type="curve" smooth="yes" name="WWQNYGBI"/>
      <point x="143" y="408" name="AMPMBSMR"/>
      <point x="159" y="455" name="PQBOYOLH"/>
      <point x="233" y="455" type="curve" smooth="yes" name="NZOIIPIJ"/>
      <point x="293" y="455" name="FYXBCOQH"/>
      <point x="373" y="415" name="QQKNZCZT"/>
      <point x="427" y="339" type="curve" smooth="yes" name="PXAEVVYR"/>
      <point x="475" y="271" name="KOVYITLZ"/>
      <point x="464" y="217" name="PRYIPVRD"/>
      <point x="390" y="217" type="curve" smooth="yes" name="NRWRTGKT"/>
      <point x="316" y="217" name="GDSURPUK"/>
      <point x="218" y="277" name="QHYAQFIG"/>
      <point x="128" y="403" type="curve" name="MLRGKLGW"/>
      <point x="8" y="571" name="ZLKYAWCO"/>
      <point x="31" y="630" name="YGTUJGMY"/>
      <point x="126" y="630" type="curve" smooth="yes" name="KNXOBIJL"/>
      <point x="149" y="630" name="KLTGLWGT"/>
      <point x="176" y="626" name="HVNVNIHN"/>
      <point x="208" y="617" type="curve" smooth="yes" name="HHHDNAIW"/>
    </contour>
    <contour>
      <point x="91" y="392" type="move" name="WVJDBPST"/>
      <point x="90" y="379" name="UEMXPCWP"/>
      <point x="130" y="348" name="AGUKYDLW"/>
      <point x="238" y="284" type="curve" name="BELPDSFQ"/>
    </contour>
    <contour>
      <point x="174" y="585" type="move" name="EFXCGOBP"/>
      <point x="208" y="617" type="line" name="GEKQYSIJ"/>
      <point x="256" y="470" type="line" name="PVONLEGE"/>
    </contour>
    <contour>
      <point x="256" y="470" type="curve" name="AUNNFZSQ"/>
      <point x="174" y="585" type="line" name="BZXKISCL"/>
      <point x="-59" y="646" name="RHTKYLRY"/>
      <point x="-136" y="563" name="PGXJNJNN"/>
      <point x="22" y="340" type="curve" smooth="yes" name="HUXYVKMJ"/>
      <point x="134" y="181" name="WQIMWNYG"/>
      <point x="263" y="103" name="ZPGVACDV"/>
      <point x="371" y="103" type="curve" smooth="yes" name="CCGVCDXU"/>
      <point x="478" y="103" name="KYTSWLRE"/>
      <point x="494" y="176" name="ZSGEYHSH"/>
      <point x="428" y="271" type="curve" smooth="yes" name="ZZBVKVCS"/>
      <point x="353" y="376" name="HVOUXGMA"/>
      <point x="241" y="427" name="XZOYYZRX"/>
      <point x="164" y="427" type="curve" smooth="yes" name="JFRWYKIF"/>
      <point x="129" y="427" name="REYFTALA"/>
      <point x="102" y="415" name="YMJDFJHL"/>
      <point x="91" y="392" type="curve" name="XICZCLFL"/>
      <point x="30" y="485" name="YDURWDNR"/>
      <point x="50" y="515" name="XANHKDSO"/>
      <point x="105" y="515" type="curve" smooth="yes" name="NJYZBWPX"/>
      <point x="142" y="515" name="HDTOLWLW"/>
      <point x="195" y="499" name="VXAGYZSU"/>
    </contour>
    <contour>
      <point x="309" y="191" type="curve" smooth="yes" name="GDQLGKFD"/>
      <point x="268" y="191" name="TCABTZKR"/>
      <point x="218" y="223" name="UCGAPSSV"/>
      <point x="186" y="269" type="curve" smooth="yes" name="JUNYQFVN"/>
      <point x="155" y="313" name="GGBWCDKS"/>
      <point x="161" y="343" name="HPVJHHMY"/>
      <point x="202" y="343" type="curve" smooth="yes" name="HKACLSNE"/>
      <point x="243" y="343" name="ULHWJOTK"/>
      <point x="293" y="312" name="JKIRNEHK"/>
      <point x="325" y="267" type="curve" smooth="yes" name="NVHESDJX"/>
      <point x="356" y="223" name="IAQYAUXB"/>
      <point x="350" y="191" name="AWMYQYPR"/>
    </contour>
  </outline>
</glyph>
<glyph name="eight" format="2">
  <advance width="402"/>
  <unicode hex="0038"/>
  <outline>
    <contour>
      <point x="229" y="438" type="curve" smooth="yes" name="BWOBEFYK"/>
      <point x="166" y="438" name="ZXMDJFWV"/>
      <point x="93" y="474" name="FOWLEBTQ"/>
      <point x="47" y="538" type="curve" smooth="yes" name="AXWVWTWP"/>
      <point x="7" y="595" name="XDSFKIQD"/>
      <point x="25" y="636" name="TDMGFFIS"/>
      <point x="89" y="636" type="curve" smooth="yes" name="MQVSWYAN"/>
      <point x="152" y="636" name="EXTNEQFS"/>
      <point x="227" y="595" name="KBGSIMNZ"/>
      <point x="267" y="538" type="curve" smooth="yes" name="PMSJRNYV"/>
      <point x="312" y="474" name="ROAHMESG"/>
      <point x="292" y="438" name="DHBABKQC"/>
    </contour>
    <contour>
      <point x="385" y="217" type="curve" smooth="yes" name="IUZWDGCH"/>
      <point x="455" y="217" name="SHFCJQZN"/>
      <point x="475" y="262" name="FIKSEJUQ"/>
      <point x="430" y="325" type="curve" smooth="yes" name="QMZBRZUK"/>
      <point x="379" y="397" name="TOKAGHNL"/>
      <point x="297" y="438" name="VGOBTXFI"/>
      <point x="229" y="438" type="curve" smooth="yes" name="JNVCWQME"/>
      <point x="159" y="438" name="IMEHISYK"/>
      <point x="135" y="397" name="WOLSCWDK"/>
      <point x="186" y="325" type="curve" smooth="yes" name="KERINFLN"/>
      <point x="230" y="262" name="DGUSJGRT"/>
      <point x="313" y="217" name="KCRQZXJM"/>
    </contour>
    <contour>
      <point x="68" y="369" type="move" name="SCNFFGJN"/>
      <point x="229" y="438" type="line" name="YTQZVMGX"/>
      <point x="287" y="369" type="line" name="WMKLGMXH"/>
    </contour>
    <contour>
      <point x="366" y="103" type="curve" smooth="yes" name="WYEDCRAS"/>
      <point x="468" y="103" name="JRFQMIJQ"/>
      <point x="497" y="164" name="FVTGHWUD"/>
      <point x="437" y="249" type="curve" smooth="yes" name="QPNWEKLA"/>
      <point x="398" y="304" name="VCMAFFDB"/>
      <point x="344" y="345" name="CZIMAEPU"/>
      <point x="287" y="369" type="curve" name="JUUIJCUL"/>
      <point x="304" y="391" name="OSKPWUMT"/>
      <point x="299" y="425" name="XFYGTDRQ"/>
      <point x="266" y="471" type="curve" smooth="yes" name="QBJWZXXQ"/>
      <point x="211" y="550" name="NIALAVRJ"/>
      <point x="100" y="609" name="PSOEWPRB"/>
      <point x="8" y="609" type="curve" smooth="yes" name="UMOQWSIF"/>
      <point x="-86" y="609" name="PIBRNKCS"/>
      <point x="-113" y="550" name="WXIASFSI"/>
      <point x="-57" y="471" type="curve" smooth="yes" name="EXAGAEHT"/>
      <point x="-25" y="425" name="MUAODOCN"/>
      <point x="19" y="391" name="NUSWMSBQ"/>
      <point x="68" y="369" type="curve" name="EUTZMYNZ"/>
      <point x="44" y="345" name="PTKTVUHV"/>
      <point x="47" y="304" name="AYQFOSNE"/>
      <point x="86" y="249" type="curve" smooth="yes" name="OHCSUMXC"/>
      <point x="147" y="164" name="VUXIOHNG"/>
      <point x="262" y="103" name="KRBRQUHE"/>
    </contour>
    <contour>
      <point x="151" y="407" type="curve" smooth="yes" name="UZJQLGTU"/>
      <point x="117" y="407" name="KXQPUDZU"/>
      <point x="76" y="430" name="RCFSHKWW"/>
      <point x="52" y="464" type="curve" smooth="yes" name="AIJJHFFI"/>
      <point x="28" y="498" name="FEJYBPKJ"/>
      <point x="36" y="522" name="JXRPUAEH"/>
      <point x="70" y="522" type="curve" smooth="yes" name="HFDZAJUG"/>
      <point x="103" y="522" name="LOILWLOL"/>
      <point x="143" y="498" name="MRDWKBVI"/>
      <point x="167" y="464" type="curve" smooth="yes" name="UOQOVKCG"/>
      <point x="191" y="430" name="BAVXBVAK"/>
      <point x="184" y="407" name="ICBWWKID"/>
    </contour>
    <contour>
      <point x="304" y="191" type="curve" smooth="yes" name="BRQPWGMD"/>
      <point x="265" y="191" name="FPWNHQFR"/>
      <point x="214" y="219" name="YMKVEMFT"/>
      <point x="185" y="260" type="curve" smooth="yes" name="VTCIMKCL"/>
      <point x="155" y="302" name="VHFRQSVX"/>
      <point x="168" y="328" name="KQQJBETI"/>
      <point x="207" y="328" type="curve" smooth="yes" name="NVLHQWIU"/>
      <point x="245" y="328" name="TOQHOVUI"/>
      <point x="294" y="302" name="IHLWRUME"/>
      <point x="323" y="260" type="curve" smooth="yes" name="KPJKYCNS"/>
      <point x="352" y="219" name="QCPYFMZE"/>
      <point x="342" y="191" name="LQETGNIH"/>
    </contour>
  </outline>
</glyph>
<glyph name="nine" format="2">
  <advance width="404"/>
  <unicode hex="0039"/>
  <outline>
    <contour>
      <point x="162" y="616" type="move" name="SQKKVBEU"/>
      <point x="208" y="594" name="DHUATODE"/>
      <point x="251" y="558" name="MCMKNWQU"/>
      <point x="282" y="514" type="curve" smooth="yes" name="WWQNYGBI"/>
      <point x="332" y="444" name="AMPMBSMR"/>
      <point x="316" y="397" name="PQBOYOLH"/>
      <point x="242" y="397" type="curve" smooth="yes" name="NZOIIPIJ"/>
      <point x="182" y="397" name="FYXBCOQH"/>
      <point x="102" y="437" name="QQKNZCZT"/>
      <point x="48" y="513" type="curve" smooth="yes" name="PXAEVVYR"/>
      <point x="0" y="582" name="KOVYITLZ"/>
      <point x="11" y="635" name="PRYIPVRD"/>
      <point x="85" y="635" type="curve" smooth="yes" name="NRWRTGKT"/>
      <point x="159" y="635" name="GDSURPUK"/>
      <point x="257" y="575" name="QHYAQFIG"/>
      <point x="347" y="449" type="curve" name="MLRGKLGW"/>
      <point x="467" y="281" name="ZLKYAWCO"/>
      <point x="444" y="222" name="YGTUJGMY"/>
      <point x="349" y="222" type="curve" smooth="yes" name="KNXOBIJL"/>
      <point x="326" y="222" name="KLTGLWGT"/>
      <point x="299" y="226" name="HVNVNIHN"/>
      <point x="267" y="235" type="curve" smooth="yes" name="HHHDNAIW"/>
    </contour>
    <contour>
      <point x="284" y="319" type="move" name="WVJDBPST"/>
      <point x="314" y="374" name="UEMXPCWP"/>
      <point x="311" y="469" name="AGUKYDLW"/>
      <point x="237" y="568" type="curve" name="BELPDSFQ"/>
    </contour>
    <contour>
      <point x="201" y="126" type="move" name="EFXCGOBP"/>
      <point x="267" y="235" type="line" name="GEKQYSIJ"/>
      <point x="119" y="241" type="line" name="PVONLEGE"/>
    </contour>
    <contour>
      <point x="119" y="241" type="curve" name="AUNNFZSQ"/>
      <point x="201" y="126" type="line" name="BZXKISCL"/>
      <point x="434" y="65" name="RHTKYLRY"/>
      <point x="511" y="148" name="PGXJNJNN"/>
      <point x="353" y="371" type="curve" smooth="yes" name="HUXYVKMJ"/>
      <point x="241" y="529" name="WQIMWNYG"/>
      <point x="112" y="608" name="ZPGVACDV"/>
      <point x="4" y="608" type="curve" smooth="yes" name="CCGVCDXU"/>
      <point x="-103" y="608" name="KYTSWLRE"/>
      <point x="-119" y="534" name="ZSGEYHSH"/>
      <point x="-53" y="440" type="curve" smooth="yes" name="ZZBVKVCS"/>
      <point x="22" y="335" name="HVOUXGMA"/>
      <point x="134" y="284" name="XZOYYZRX"/>
      <point x="211" y="284" type="curve" smooth="yes" name="JFRWYKIF"/>
      <point x="246" y="284" name="REYFTALA"/>
      <point x="273" y="296" name="YMJDFJHL"/>
      <point x="284" y="319" type="curve" name="XICZCLFL"/>
      <point x="345" y="225" name="YDURWDNR"/>
      <point x="325" y="196" name="XANHKDSO"/>
      <point x="270" y="196" type="curve" smooth="yes" name="NJYZBWPX"/>
      <point x="233" y="196" name="HDTOLWLW"/>
      <point x="180" y="212" name="VXAGYZSU"/>
    </contour>
    <contour>
      <point x="66" y="519" type="curve" smooth="yes" name="GDQLGKFD"/>
      <point x="107" y="519" name="TCABTZKR"/>
      <point x="157" y="488" name="UCGAPSSV"/>
      <point x="189" y="442" type="curve" smooth="yes" name="JUNYQFVN"/>
      <point x="220" y="398" name="GGBWCDKS"/>
      <point x="214" y="368" name="HPVJHHMY"/>
      <point x="173" y="368" type="curve" smooth="yes" name="HKACLSNE"/>
      <point x="132" y="368" name="ULHWJOTK"/>
      <point x="82" y="398" name="JKIRNEHK"/>
      <point x="50" y="444" type="curve" smooth="yes" name="NVHESDJX"/>
      <point x="19" y="488" name="IAQYAUXB"/>
      <point x="25" y="519" name="AWMYQYPR"/>
    </contour>
  </outline>
</glyph>
<glyph name="semicolon" format="2">
  <advance width="196"/>
  <unicode hex="003B"/>
  <outline>
    <contour>
      <point x="-64" y="485" type="move" name="ALZCOVIV"/>
      <point x="83" y="500" type="line" name="UCJXJOKZ"/>
      <point x="131" y="372" type="line" name="GYZGRCBQ"/>
    </contour>
    <contour>
      <point x="17" y="372" type="move" name="TRFOBHUO"/>
      <point x="83" y="500" type="line" name="VYDIEPLL"/>
      <point x="50" y="485" type="line" name="MBGACFYN"/>
    </contour>
    <contour>
      <point x="238" y="24" type="move" smooth="yes" name="FETCUGZI"/>
      <point x="281" y="92" name="VEBLQIIB"/>
      <point x="285" y="179" name="MXQQTKPL"/>
      <point x="261" y="256" type="curve" name="FDAMAGLQ"/>
    </contour>
    <contour>
      <point x="117" y="229" type="move" name="UIMLHATQ"/>
      <point x="261" y="256" type="line" name="SUUIDMXE"/>
      <point x="235" y="229" type="line" name="OJUDMDSR"/>
    </contour>
    <contour>
      <point x="17" y="372" type="line" name="ZESEBWPC"/>
      <point x="131" y="372" type="line" name="XILEFSLX"/>
      <point x="50" y="485" type="line" name="OOLRDEMH"/>
      <point x="-64" y="485" type="line" name="WPQYCJKS"/>
    </contour>
    <contour>
      <point x="117" y="229" type="curve" name="CVWVYNXN"/>
      <point x="235" y="229" type="line" name="MVEQNUGB"/>
      <point x="298" y="151" name="BOOQQJWK"/>
      <point x="328" y="59" name="IEIBIZAB"/>
      <point x="238" y="24" type="curve" name="RZOJSMYH"/>
      <point x="220" y="108" name="AVDFDHIB"/>
      <point x="179" y="167" name="LTXGFGVK"/>
    </contour>
  </outline>
</glyph>
<glyph name="less" format="2">
  <advance width="323"/>
  <unicode hex="003C"/>
  <outline>
    <contour>
      <point x="229" y="497" type="move" name="WCXREDGS"/>
      <point x="139" y="405" type="line" name="HQDLVJTC"/>
      <point x="359" y="313" type="line" name="GLDWFHXW"/>
    </contour>
    <contour>
      <point x="332" y="272" type="move" name="VKIUOPCD"/>
      <point x="359" y="313" type="line" name="UKTBPAQX"/>
      <point x="411" y="160" type="line" name="FYKKWSQZ"/>
    </contour>
    <contour>
      <point x="166" y="507" type="move" name="UOFBULOU"/>
      <point x="229" y="497" type="line" name="MYPZCTWF"/>
      <point x="244" y="397" type="line" name="NJNWDDNY"/>
    </contour>
    <contour>
      <point x="8" y="333" type="move" name="QXYZNXAC"/>
      <point x="139" y="405" type="line" name="QZDZSNFR"/>
      <point x="174" y="335" type="line" name="OZCJQGLK"/>
    </contour>
    <contour>
      <point x="8" y="333" type="line" name="LMFIWGFW"/>
      <point x="411" y="160" type="line" name="VHZUCMVQ"/>
      <point x="332" y="272" type="line" name="XXFRUOFE"/>
      <point x="174" y="335" type="line" name="ITKAUAOE"/>
      <point x="244" y="397" type="line" name="DXLRFZCB"/>
      <point x="166" y="507" type="line" name="FWZRKJFV"/>
    </contour>
  </outline>
</glyph>
<glyph name="A" format="2">
  <advance width="474"/>
  <unicode hex="0041"/>
  <outline>
    <contour>
      <point x="250" y="236" type="move" name="GICMEZCQ"/>
      <point x="216" y="333" type="line" name="QDVCQSNO"/>
      <point x="120" y="611" type="line" name="OXQKBGAT"/>
      <point x="160" y="611" type="line" name="EXEWBVRM"/>
      <point x="457" y="333" type="line" name="KTYDZKVY"/>
      <point x="559" y="236" type="line" name="SSJOSDEF"/>
    </contour>
    <contour>
      <point x="457" y="333" type="move" name="AYNQMHFI"/>
      <point x="216" y="333" type="line" name="BTTYPPUR"/>
    </contour>
    <contour>
      <point x="-2" y="596" type="move" name="OPZYABCV"/>
      <point x="120" y="611" type="line" name="CQBSJRTU"/>
      <point x="146" y="457" type="line" name="XMYUAXWT"/>
      <point x="160" y="611" type="line" name="RMQWFWLY"/>
      <point x="106" y="596" type="line" name="DIZUAXXI"/>
    </contour>
    <contour>
      <point x="197" y="307" type="move" name="HXSFFLIG"/>
      <point x="216" y="333" type="line" name="DKAOHZWI"/>
      <point x="231" y="219" type="line" name="AHKOLEYK"/>
    </contour>
    <contour>
      <point x="306" y="307" type="move" name="PCRHERUK"/>
      <point x="457" y="333" type="line" name="XREZEBDK"/>
      <point x="397" y="219" type="line" name="TDGTECWF"/>
    </contour>
    <contour>
      <point x="297" y="116" type="move" name="VYPIWFWC"/>
      <point x="250" y="236" type="line" name="HDOGQIGX"/>
      <point x="152" y="116" type="line" name="NZGOSKZA"/>
    </contour>
    <contour>
      <point x="632" y="116" type="move" name="CJOGMKGO"/>
      <point x="559" y="236" type="line" name="PSATSMVU"/>
      <point x="478" y="116" type="line" name="SYRAAAFE"/>
    </contour>
    <contour>
      <point x="120" y="611" type="move" name="YUMJSPXG"/>
    </contour>
    <contour>
      <point x="160" y="611" type="move" name="XAZLIEJS"/>
    </contour>
    <contour>
      <point x="231" y="219" type="curve" name="MIGYIWMX"/>
      <point x="397" y="219" type="line" name="XHNHHZMY"/>
      <point x="457" y="159" name="TFPWPBXU"/>
      <point x="471" y="138" name="APOQMTKI"/>
      <point x="478" y="116" type="curve" name="LXJJAAHU"/>
      <point x="632" y="116" type="line" name="QMTEBQKX"/>
      <point x="591" y="144" name="VTSSQZZB"/>
      <point x="547" y="183" name="MFRKAQMO"/>
      <point x="352" y="362" type="curve" smooth="yes" name="BBVCQGFO"/>
      <point x="169" y="531" name="VBUIACVY"/>
      <point x="131" y="569" name="IVUWITLU"/>
      <point x="106" y="596" type="curve" name="OYGQPRYK"/>
      <point x="-2" y="596" type="line" name="OVDTSNDK"/>
      <point x="16" y="568" name="SCPJTVRB"/>
      <point x="29" y="525" name="GHTLXEXR"/>
      <point x="83" y="362" type="curve" smooth="yes" name="FAKPZKNQ"/>
      <point x="143" y="183" name="BCRLIWSY"/>
      <point x="153" y="144" name="UPKNOQFJ"/>
      <point x="152" y="116" type="curve" name="YCAWTIXK"/>
      <point x="297" y="116" type="line" name="DHOFNUAJ"/>
      <point x="273" y="138" name="YUBLLAGW"/>
      <point x="256" y="159" name="AYEDQEOW"/>
    </contour>
    <contour>
      <point x="146" y="457" type="line" name="VECPRSGR"/>
      <point x="306" y="307" type="line" name="ONMDPKHX"/>
      <point x="197" y="307" type="line" name="THENTKFT"/>
    </contour>
  </outline>
</glyph>
<glyph name="J" format="2">
  <advance width="331"/>
  <unicode hex="004A"/>
  <outline>
    <contour>
      <point x="-27" y="596" type="move" name="ECUUNSVW"/>
      <point x="124" y="623" type="line" name="WZGBHWZC"/>
      <point x="112" y="596" type="line" name="SFLOLYUF"/>
    </contour>
    <contour>
      <point x="124" y="623" type="move" name="JKIZUAWY"/>
      <point x="316" y="352" type="line" smooth="yes" name="FNHOIXFX"/>
      <point x="371" y="274" name="AAQZQEMK"/>
      <point x="363" y="225" name="ZUJCFWQR"/>
      <point x="291" y="225" type="curve" smooth="yes" name="BBDNGLKL"/>
      <point x="274" y="224" name="AELJLBFA"/>
      <point x="253" y="228" name="HYIRNLZE"/>
      <point x="229" y="234" type="curve" smooth="yes" name="YFEAPKEK"/>
    </contour>
    <contour>
      <point x="162" y="126" type="move" name="LMCNVRTT"/>
      <point x="229" y="234" type="line" name="MBLKTCQA"/>
      <point x="77" y="247" type="line" name="IQVNJISR"/>
    </contour>
    <contour>
      <point x="77" y="247" type="curve" name="XARXUXCT"/>
      <point x="162" y="126" type="line" name="LRAWDLJG"/>
      <point x="207" y="114" name="IGQQEMYW"/>
      <point x="247" y="108" name="ZZWQEXUJ"/>
      <point x="277" y="109" type="curve" smooth="yes" name="RGMYLKHY"/>
      <point x="379" y="110" name="PDIQKNHX"/>
      <point x="387" y="181" name="BOLDYLDV"/>
      <point x="318" y="279" type="curve" smooth="yes" name="TKCPJSNU"/>
      <point x="259" y="362" type="line" name="EOWJFJHE"/>
      <point x="139" y="532" name="ZBVKDDVQ"/>
      <point x="118" y="569" name="CCQNWRXM"/>
      <point x="112" y="596" type="curve" name="WWKGJSLL"/>
      <point x="-27" y="596" type="line" name="UQKLHLGR"/>
      <point x="7" y="569" name="JVAIRYFW"/>
      <point x="38" y="532" name="WTSQYXGK"/>
      <point x="158" y="362" type="curve" name="BMUYXTXS"/>
      <point x="214" y="283" type="line" smooth="yes" name="KCTATBAP"/>
      <point x="254" y="226" name="SETRFCNX"/>
      <point x="247" y="199" name="KQZNDYWC"/>
      <point x="205" y="199" type="curve" smooth="yes" name="GBFLMUJY"/>
      <point x="176" y="199" name="MMYWYZGJ"/>
      <point x="134" y="213" name="WTUBCYTQ"/>
    </contour>
  </outline>
</glyph>
<glyph name="Q" format="2">
  <advance width="524"/>
  <unicode hex="0051"/>
  <outline>
    <contour>
      <point x="441" y="223" type="curve" smooth="yes" name="VMKQWNJD"/>
      <point x="335" y="223" name="DMSEBCOW"/>
      <point x="201" y="305" name="UCSBYSFO"/>
      <point x="115" y="427" type="curve" smooth="yes" name="RVRTRIUO"/>
      <point x="28" y="550" name="BNOCIASS"/>
      <point x="47" y="630" name="PJXPWODX"/>
      <point x="153" y="630" type="curve" smooth="yes" name="MRXDPXJL"/>
      <point x="259" y="630" name="OECYGCGW"/>
      <point x="392" y="549" name="TSJCLBTQ"/>
      <point x="478" y="427" type="curve" smooth="yes" name="VUMBXMUR"/>
      <point x="542" y="338" name="ZMYKKHYM"/>
      <point x="549" y="270" name="MZVSJBUK"/>
      <point x="507" y="239" type="curve" smooth="yes" name="DAHKINQW"/>
      <point x="492" y="229" name="KKKUCNZP"/>
      <point x="469" y="223" name="XBUWQOCH"/>
    </contour>
    <contour>
      <point x="735" y="73" type="move" name="DWIHOPYO"/>
      <point x="695" y="74" name="QTWVCDLR"/>
      <point x="618" y="125" name="VHQHVXSU"/>
      <point x="507" y="239" type="curve" name="MDIHMODS"/>
    </contour>
    <contour>
      <point x="472" y="113" type="move" name="YNRHKYIU"/>
      <point x="507" y="239" type="line" name="MRWUOZGO"/>
      <point x="535" y="159" type="line" name="ECXCYZTT"/>
    </contour>
    <contour>
      <point x="423" y="107" type="curve" smooth="yes" name="QQEQSLFR"/>
      <point x="444" y="107" name="EOREUVHG"/>
      <point x="463" y="110" name="WCBVTDWD"/>
      <point x="472" y="113" type="curve" name="AZUKFDES"/>
      <point x="619" y="14" name="TXKERXAR"/>
      <point x="737" y="3" name="HATUHOWU"/>
      <point x="735" y="73" type="curve" name="ZMMBQJFO"/>
      <point x="645" y="97" name="DFQYUHJP"/>
      <point x="594" y="119" name="QINDHISV"/>
      <point x="535" y="159" type="curve" name="JTAJTBRO"/>
      <point x="558" y="203" name="OQVHQBRJ"/>
      <point x="541" y="273" name="OJLOOPKY"/>
      <point x="482" y="357" type="curve" smooth="yes" name="CZLJGMVN"/>
      <point x="379" y="502" name="HKOVGHHH"/>
      <point x="207" y="605" name="IICAFJKM"/>
      <point x="71" y="605" type="curve" smooth="yes" name="FGCNGCKW"/>
      <point x="-65" y="605" name="YUFDZYBS"/>
      <point x="-91" y="502" name="DHSRFHFY"/>
      <point x="11" y="357" type="curve" smooth="yes" name="MFPWPMMF"/>
      <point x="114" y="211" name="PPVKVDMV"/>
      <point x="287" y="107" name="KFQUIZZV"/>
    </contour>
    <contour>
      <point x="360" y="197" type="curve" smooth="yes" name="RHWUBGCN"/>
      <point x="283" y="197" name="XQITXTMJ"/>
      <point x="189" y="258" name="KCNGVBNN"/>
      <point x="119" y="357" type="curve" smooth="yes" name="LUTHASYL"/>
      <point x="49" y="456" name="THPUXOFO"/>
      <point x="58" y="515" name="NOQVGYFB"/>
      <point x="135" y="515" type="curve" smooth="yes" name="OGTRWIVX"/>
      <point x="211" y="515" name="TWEKISNJ"/>
      <point x="305" y="455" name="DRERZVNS"/>
      <point x="374" y="357" type="curve" smooth="yes" name="IJOKYMBL"/>
      <point x="444" y="258" name="PLAXGJCX"/>
      <point x="436" y="197" name="ISQDVNCJ"/>
    </contour>
  </outline>
</glyph>
<glyph name="R" format="2">
  <advance width="455"/>
  <unicode hex="0052"/>
  <outline>
    <contour>
      <point x="284" y="230" type="move" name="NYTHRSXI"/>
      <point x="162" y="403" type="line" name="HOCYOXPP"/>
      <point x="6" y="623" type="line" name="QSVTQVBJ"/>
      <point x="120" y="623" type="line" smooth="yes" name="ZCBBUWDG"/>
      <point x="194" y="623" name="UJGVFWGM"/>
      <point x="269" y="580" name="GAOQKZSP"/>
      <point x="316" y="513" type="curve" smooth="yes" name="AIDJHMWL"/>
      <point x="358" y="454" name="JWHVCDSF"/>
      <point x="351" y="411" name="MDGCBNIT"/>
      <point x="301" y="403" type="curve" smooth="yes" name="MUWWNTPU"/>
      <point x="162" y="403" type="line" name="UJQKTSSJ"/>
    </contour>
    <contour>
      <point x="301" y="403" type="move" name="GAVRJUXP"/>
      <point x="537" y="230" type="line" name="AAOSVVWB"/>
    </contour>
    <contour>
      <point x="132" y="375" type="move" name="BHAZYCJU"/>
      <point x="162" y="403" type="line" name="LKPQIGAZ"/>
      <point x="193" y="290" type="line" name="CGSXIVVA"/>
    </contour>
    <contour>
      <point x="335" y="116" type="move" name="SEMGXOMG"/>
      <point x="284" y="230" type="line" name="TWORCRDR"/>
      <point x="195" y="116" type="line" name="RYWYTYKV"/>
    </contour>
    <contour>
      <point x="-145" y="596" type="move" name="ECUUNSVW"/>
      <point x="6" y="623" type="line" name="UHMWTTEK"/>
      <point x="41" y="508" type="line" name="WZGBHWZC"/>
    </contour>
    <contour>
      <point x="254" y="290" type="move" name="HVCBTTLX"/>
      <point x="301" y="403" type="line" name="ZVGZSSSC"/>
      <point x="337" y="312" type="line" name="ZLWNKWDA"/>
    </contour>
    <contour>
      <point x="624" y="116" type="move" name="CDFOGWIS"/>
      <point x="537" y="230" type="line" name="HTUJLBCY"/>
      <point x="468" y="116" type="line" name="BRRIQBLH"/>
    </contour>
    <contour>
      <point x="195" y="116" type="curve" name="ZDJWBLNW"/>
      <point x="335" y="116" type="line" name="JYMZCYDT"/>
      <point x="306" y="140" name="MPOZBRZP"/>
      <point x="278" y="172" name="KEPDWSUS"/>
      <point x="193" y="290" type="curve" name="KXSXRAQX"/>
      <point x="254" y="290" type="line" name="PWCOXWOW"/>
      <point x="412" y="172" name="WVGJXZTS"/>
      <point x="449" y="140" name="FTLALJEW"/>
      <point x="468" y="116" type="curve" name="UICYDGTV"/>
      <point x="624" y="116" type="line" name="SUOCRDSE"/>
      <point x="577" y="141" name="XAKRCUHS"/>
      <point x="525" y="175" name="JBIBISFR"/>
      <point x="337" y="312" type="curve" name="WNWOQVXO"/>
      <point x="365" y="337" name="FEYYSZII"/>
      <point x="360" y="384" name="DBGURBPR"/>
      <point x="318" y="444" type="curve" smooth="yes" name="OCZPHWUQ"/>
      <point x="253" y="535" name="YXBAXZQZ"/>
      <point x="145" y="596" name="CTAKRJQG"/>
      <point x="39" y="596" type="curve" smooth="yes" name="BCGENRCP"/>
      <point x="-145" y="596" type="line" name="RXLYDPFY"/>
      <point x="-111" y="569" name="DMNNLYPT"/>
      <point x="-80" y="532" name="ORJQNQTA"/>
      <point x="40" y="362" type="curve" smooth="yes" name="OZSFVRVF"/>
      <point x="167" y="183" name="GZXMRZOP"/>
      <point x="190" y="144" name="RYHDYQBM"/>
    </contour>
    <contour>
      <point x="103" y="508" type="line" smooth="yes" name="UCVDLHUO"/>
      <point x="144" y="508" name="MDLIUMSF"/>
      <point x="186" y="482" name="DGIFQKBM"/>
      <point x="215" y="442" type="curve" smooth="yes" name="KAXDPXOW"/>
      <point x="243" y="401" name="IZHEEXVP"/>
      <point x="238" y="375" name="JXVVKGBN"/>
      <point x="204" y="375" type="curve" smooth="yes" name="HZILBZXZ"/>
      <point x="132" y="375" type="line" name="RMGEHNRL"/>
      <point x="90" y="435" name="MXWLSJYX"/>
      <point x="61" y="477" name="WMPBTORU"/>
      <point x="41" y="508" type="curve" name="VNACVKMW"/>
    </contour>
  </outline>
</glyph>
<glyph name="V" format="2">
  <advance width="462"/>
  <unicode hex="0056"/>
  <outline>
    <contour>
      <point x="132" y="596" type="move" name="VYPIWFWC"/>
      <point x="279" y="618" type="line" name="HDOGQIGX"/>
      <point x="277" y="596" type="line" name="NZGOSKZA"/>
    </contour>
    <contour>
      <point x="-185" y="596" type="move" name="CJOGMKGO"/>
      <point x="-13" y="618" type="line" name="PSATSMVU"/>
      <point x="-32" y="596" type="line" name="SYRAAAFE"/>
    </contour>
    <contour>
      <point x="-13" y="618" type="move" name="HPIGSPPQ"/>
      <point x="193" y="420" type="line" name="ZUCTTFWP"/>
      <point x="250" y="367" name="DNSSNUVC"/>
      <point x="320" y="301" name="WLEUSDPC"/>
      <point x="370" y="250" type="curve" name="RMFRABWP"/>
      <point x="416" y="250" type="line" name="HOBEWAJM"/>
      <point x="395" y="301" name="NFPKCTSZ"/>
      <point x="370" y="367" name="SSUOLANM"/>
      <point x="352" y="420" type="curve" smooth="yes" name="XZVQMVQR"/>
      <point x="279" y="618" type="line" name="YLZJPCFD"/>
    </contour>
    <contour>
      <point x="333" y="116" type="move" name="GUAYFBHG"/>
      <point x="370" y="250" type="line" name="TLQLLYHG"/>
      <point x="286" y="263" type="line" name="XEQORZFB"/>
      <point x="416" y="250" type="line" name="TVJDFVVV"/>
      <point x="441" y="116" type="line" name="JKQTLTGN"/>
    </contour>
    <contour>
      <point x="333" y="116" type="curve" name="UCOPTTGS"/>
      <point x="441" y="116" type="line" name="IBFHITIL"/>
      <point x="422" y="143" name="ACSQAUUE"/>
      <point x="408" y="181" name="RGCYRPNA"/>
      <point x="349" y="350" type="curve" smooth="yes" name="YIMFTJFI"/>
      <point x="287" y="529" name="GFNXEXSX"/>
      <point x="276" y="568" name="XWKUFNGA"/>
      <point x="277" y="596" type="curve" name="XYVLWLYA"/>
      <point x="132" y="596" type="line" name="XFEXOZAS"/>
      <point x="172" y="562" name="PTSLSOQD"/>
      <point x="189" y="529" name="IAYYXWYK"/>
      <point x="254" y="350" type="curve" smooth="yes" name="VNDVSBXW"/>
      <point x="286" y="263" type="line" name="VNNAYTEH"/>
      <point x="195" y="350" type="line" smooth="yes" name="SLBKUCOR"/>
      <point x="5" y="530" name="EEAQSBOR"/>
      <point x="-22" y="562" name="KQWRXTUU"/>
      <point x="-32" y="596" type="curve" name="YKHVKMDQ"/>
      <point x="-185" y="596" type="line" name="RBXTGGMI"/>
      <point x="-144" y="568" name="ALBDBZVE"/>
      <point x="-100" y="529" name="JKRJMTIT"/>
      <point x="92" y="350" type="curve" smooth="yes" name="ZNGOIIOJ"/>
      <point x="272" y="181" name="JTMEYQOZ"/>
      <point x="309" y="143" name="TKMMZCJS"/>
    </contour>
  </outline>
</glyph>
<glyph name="X" format="2">
  <advance width="465"/>
  <unicode hex="0058"/>
  <outline>
    <contour>
      <point x="533" y="230" type="move" name="DXQHOYPR"/>
      <point x="263" y="433" type="line" name="CSNHLRBV"/>
      <point x="11" y="623" type="line" name="UMBSBIFP"/>
    </contour>
    <contour>
      <point x="273" y="230" type="move" name="IJXQZHEO"/>
      <point x="263" y="433" type="line" name="YJCEVCKW"/>
      <point x="253" y="623" type="line" name="ZHYHNMTR"/>
    </contour>
    <contour>
      <point x="304" y="116" type="move" name="JRLMZRMB"/>
      <point x="273" y="230" type="line" name="VWUMAPUP"/>
      <point x="155" y="116" type="line" name="XJBUXPFQ"/>
    </contour>
    <contour>
      <point x="-178" y="596" type="move" name="ECUUNSVW"/>
      <point x="11" y="623" type="line" name="WZGBHWZC"/>
      <point x="-15" y="596" type="line" name="SFLOLYUF"/>
    </contour>
    <contour>
      <point x="620" y="116" type="move" name="PXIBMFLN"/>
      <point x="533" y="230" type="line" name="YWMEWBPF"/>
      <point x="457" y="116" type="line" name="RZJHOCJT"/>
    </contour>
    <contour>
      <point x="122" y="596" type="move" name="NUKKCNGE"/>
      <point x="253" y="623" type="line" name="POROMZGU"/>
      <point x="271" y="596" type="line" name="FQNYHCGX"/>
    </contour>
    <contour>
      <point x="159" y="360" type="move" name="YPFDIXJO"/>
    </contour>
    <contour>
      <point x="160" y="357" type="move" name="GJJJNNQJ"/>
      <point x="263" y="433" type="line" name="GYACVNXC"/>
      <point x="265" y="367" type="line" name="OODPQFJM"/>
    </contour>
    <contour>
      <point x="157" y="449" type="move" name="ZVZGLYAA"/>
      <point x="263" y="433" type="line" name="ITZMFEBQ"/>
      <point x="268" y="276" type="line" name="LOQXXOCZ"/>
    </contour>
    <contour>
      <point x="265" y="367" type="curve" name="ISZPFILC"/>
      <point x="258" y="532" name="GOPQYGIA"/>
      <point x="260" y="569" name="ZCKHDTJR"/>
      <point x="271" y="596" type="curve" name="RULBKMPT"/>
      <point x="122" y="596" type="line" name="LBNKOCYY"/>
      <point x="143" y="570" name="NBMOBCJA"/>
      <point x="152" y="545" name="GWHXOLZE"/>
      <point x="157" y="449" type="curve" name="NSEIXYRM"/>
      <point x="32" y="544" name="PLOIKCHN"/>
      <point x="2" y="570" name="GNKFWALH"/>
      <point x="-15" y="596" type="curve" name="XZKLYCXR"/>
      <point x="-178" y="596" type="line" name="GZFROFLV"/>
      <point x="-129" y="569" name="NKWBJWOL"/>
      <point x="-71" y="531" name="VCFYVKRN"/>
      <point x="160" y="357" type="curve" name="RSJFQSLA"/>
      <point x="168" y="182" name="UULCYDEU"/>
      <point x="166" y="144" name="ZORTDNTF"/>
      <point x="155" y="116" type="curve" name="DTEMTKSO"/>
      <point x="304" y="116" type="line" name="KRJMSWDK"/>
      <point x="283" y="143" name="NKXEGYGR"/>
      <point x="273" y="170" name="CUAXWFJM"/>
      <point x="268" y="276" type="curve" name="LWAGFEVH"/>
      <point x="408" y="171" name="WZKATATP"/>
      <point x="439" y="143" name="OINDPEDU"/>
      <point x="457" y="116" type="curve" name="LGCZPTHA"/>
      <point x="620" y="116" type="line" name="UQWSKNRC"/>
      <point x="569" y="144" name="RLXTCZNG"/>
      <point x="502" y="188" name="TQEHBXKS"/>
    </contour>
  </outline>
</glyph>
<glyph name="backslash" format="2">
  <advance width="331"/>
  <unicode hex="005C"/>
  <outline>
    <contour>
      <point x="-64" y="673" type="move" name="GXLIXLTU"/>
      <point x="467" y="177" type="line" name="VBMVDPNQ"/>
    </contour>
    <contour>
      <point x="514" y="63" type="move" name="XJBUXPFQ"/>
      <point x="467" y="177" type="line" name="VWUMAPUP"/>
      <point x="414" y="63" type="line" name="JRLMZRMB"/>
    </contour>
    <contour>
      <point x="-210" y="646" type="move" name="SFLOLYUF"/>
      <point x="-64" y="673" type="line" name="WZGBHWZC"/>
      <point x="-111" y="646" type="line" name="ECUUNSVW"/>
    </contour>
    <contour>
      <point x="514" y="63" type="line" name="VFDDPBXL"/>
      <point x="-111" y="646" type="line" name="RPRAXUEC"/>
      <point x="-210" y="646" type="line" name="NJJSFWOF"/>
      <point x="414" y="63" type="line" name="WSHOHPKJ"/>
    </contour>
  </outline>
</glyph>
<glyph name="bracketright" format="2">
  <advance width="323"/>
  <unicode hex="005D"/>
  <outline>
    <contour>
      <point x="-242" y="693" type="move" name="LTDPDQAM"/>
      <point x="-145" y="697" name="VATVYTCJ"/>
      <point x="-44" y="699" name="LRBKMYRS"/>
      <point x="35" y="700" type="curve" name="ZZCPLZDU"/>
      <point x="420" y="155" type="line" name="BEEVSGBQ"/>
      <point x="348" y="147" name="WFZHLRKG"/>
      <point x="279" y="97" name="IZQBVPSH"/>
      <point x="233" y="21" type="curve" name="YHNNHILT"/>
    </contour>
    <contour>
      <point x="475" y="35" type="move" name="FRPPGYVT"/>
      <point x="420" y="155" type="line" name="ZENXSLXH"/>
      <point x="286" y="128" type="line" name="RBFACIQK"/>
    </contour>
    <contour>
      <point x="-37" y="585" type="move" name="CUISBYWO"/>
      <point x="35" y="700" type="line" name="KXHORHYR"/>
      <point x="20" y="679" type="line" name="RHHJSEOH"/>
    </contour>
    <contour>
      <point x="233" y="21" type="curve" name="JHQDIVVE"/>
      <point x="306" y="36" name="PUCVDTWR"/>
      <point x="393" y="41" name="HJGXJHPJ"/>
      <point x="475" y="35" type="curve" name="JGPCDYOJ"/>
      <point x="431" y="71" name="QRBMAQZC"/>
      <point x="394" y="123" name="XETPPULP"/>
      <point x="228" y="357" type="curve" smooth="yes" name="NCVBCHEU"/>
      <point x="63" y="591" name="KAEKBLXU"/>
      <point x="27" y="642" name="RINHHUBJ"/>
      <point x="20" y="679" type="curve" name="NZLUIOZP"/>
      <point x="-54" y="673" name="BTNFEFSP"/>
      <point x="-147" y="677" name="UGOHKXZJ"/>
      <point x="-242" y="693" type="curve" name="EEJLWFSS"/>
      <point x="-189" y="638" name="RWLMLQKU"/>
      <point x="-113" y="599" name="QWRPTRUK"/>
      <point x="-37" y="585" type="curve" name="GUFDKICE"/>
      <point x="-5" y="544" name="QMUSKEVL"/>
      <point x="42" y="478" name="BTXXOVUX"/>
      <point x="127" y="357" type="curve" smooth="yes" name="FDAJJYBI"/>
      <point x="213" y="236" name="CNUSWBPZ"/>
      <point x="260" y="169" name="LHXEEEOM"/>
      <point x="286" y="128" type="curve" name="YEVEDYJS"/>
      <point x="230" y="114" name="NVHODWZX"/>
      <point x="209" y="75" name="KIGMAUNG"/>
    </contour>
  </outline>
</glyph>
<glyph name="braceright" format="2">
  <advance width="325"/>
  <unicode hex="007D"/>
  <outline>
    <contour>
      <point x="306" y="135" type="move" smooth="yes" name="DJWMGFXN"/>
      <point x="405" y="116" name="TRVGJZSQ"/>
      <point x="435" y="146" name="LSEABRHQ"/>
      <point x="393" y="205" type="curve" smooth="yes" name="GIAPYVPI"/>
      <point x="357" y="256" name="VGXUKJAK"/>
      <point x="273" y="322" name="CJTOAGGL"/>
      <point x="244" y="362" type="curve" smooth="yes" name="ZPXWSWLF"/>
      <point x="213" y="407" name="BPPBHNXE"/>
      <point x="219" y="430" name="MWAARZRG"/>
      <point x="279" y="430" type="curve" name="FKUKSUBR"/>
      <point x="219" y="430" name="WJCUXHPQ"/>
      <point x="181" y="452" name="EUMVGZQS"/>
      <point x="149" y="497" type="curve" smooth="yes" name="YCKPVSZP"/>
      <point x="121" y="536" name="DIDAQYPI"/>
      <point x="112" y="603" name="ZMHLUCAP"/>
      <point x="77" y="652" type="curve" smooth="yes" name="HPRANMSD"/>
      <point x="34" y="713" name="BBNERILY"/>
      <point x="-39" y="742" name="TKFUVZXK"/>
      <point x="-110" y="723" type="curve" smooth="yes" name="DGFGOSVF"/>
    </contour>
    <contour>
      <point x="279" y="430" type="move" name="CADPUYQY"/>
      <point x="150" y="359" type="line" name="EHZCMMXC"/>
    </contour>
    <contour>
      <point x="302" y="318" type="move" name="EFIENYAF"/>
      <point x="279" y="430" type="line" name="CDBOBYKV"/>
      <point x="245" y="399" type="line" name="ZWIUHRCJ"/>
    </contour>
    <contour>
      <point x="239" y="26" type="move" name="QAKWYUOC"/>
      <point x="306" y="135" type="line" name="JURMZHFW"/>
      <point x="166" y="129" type="line" name="ITNKSUYE"/>
    </contour>
    <contour>
      <point x="-158" y="588" type="move" name="IFKSYXVK"/>
      <point x="-110" y="723" type="line" name="QGPAFGTV"/>
      <point x="-231" y="691" type="line" name="OCQPCHXD"/>
    </contour>
    <contour>
      <point x="245" y="399" type="line" name="VSEXLXAY"/>
      <point x="199" y="399" type="line" name="YIXKNNOP"/>
      <point x="184" y="399" name="UFCNHZHN"/>
      <point x="164" y="406" name="OJJQIZHS"/>
      <point x="152" y="423" type="curve" smooth="yes" name="DBPVCDIL"/>
      <point x="132" y="452" name="NVKFZFXV"/>
      <point x="120" y="526" name="NEQPWADW"/>
      <point x="78" y="585" type="curve" smooth="yes" name="XHLXMJDE"/>
      <point x="7" y="686" name="XHQMHSBT"/>
      <point x="-113" y="722" name="IFKPUMFM"/>
      <point x="-231" y="691" type="curve" name="AGCNKAJA"/>
      <point x="-158" y="588" type="line" name="SRVDXJRB"/>
      <point x="-110" y="638" name="RIXNNHEJ"/>
      <point x="-53" y="618" name="TXRIAADW"/>
      <point x="-25" y="579" type="curve" smooth="yes" name="NPWICZEE"/>
      <point x="3" y="538" name="CSOWXOHI"/>
      <point x="10" y="480" name="OJXRHWUX"/>
      <point x="47" y="428" type="curve" smooth="yes" name="BTOLZAKD"/>
      <point x="71" y="394" name="UVYFGQIZ"/>
      <point x="102" y="367" name="RXPZACEY"/>
      <point x="150" y="359" type="curve" name="LGGUVLQO"/>
      <point x="115" y="350" name="XOGWBGOM"/>
      <point x="121" y="324" name="UPSLHJGE"/>
      <point x="145" y="289" type="curve" smooth="yes" name="NZQULOQK"/>
      <point x="182" y="237" name="UFSQDGSI"/>
      <point x="258" y="179" name="SQJYKHKY"/>
      <point x="286" y="138" type="curve" smooth="yes" name="YLHAUYDS"/>
      <point x="314" y="99" name="EPEGCJUN"/>
      <point x="285" y="79" name="DDNCGMNH"/>
      <point x="166" y="129" type="curve" name="HWIBVQBG"/>
      <point x="239" y="26" type="line" name="NTRLNKUP"/>
      <point x="400" y="-5" name="CXRYDRPK"/>
      <point x="469" y="32" name="AHSHTNQJ"/>
      <point x="398" y="132" type="curve" smooth="yes" name="WFUVWQWG"/>
      <point x="356" y="191" name="QHMGEGAX"/>
      <point x="263" y="266" name="DNRUDJIV"/>
      <point x="243" y="294" type="curve" smooth="yes" name="XNGYFOUY"/>
      <point x="231" y="312" name="OGNKMHBF"/>
      <point x="241" y="318" name="GZNYGBJJ"/>
      <point x="256" y="318" type="curve" name="APKHJDTM"/>
      <point x="302" y="318" type="line" name="BSTZIKVX"/>
    </contour>
  </outline>
</glyph>
<glyph name="exclamdown" format="2">
  <advance width="205"/>
  <unicode hex="00A1"/>
  <outline>
    <contour>
      <point x="55" y="483" type="move" name="KFGIGMOD"/>
      <point x="8" y="610" type="line" name="PHPTNCMS"/>
      <point x="-139" y="596" type="line" name="JYLHONKL"/>
    </contour>
    <contour>
      <point x="-26" y="596" type="move" name="GMKLNRTI"/>
      <point x="8" y="610" type="line" name="BGIAKFXI"/>
      <point x="-59" y="483" type="line" name="DUAAOXAS"/>
    </contour>
    <contour>
      <point x="119" y="453" type="move" name="INZNHOIJ"/>
      <point x="277" y="230" type="line" name="IRHJFHBZ"/>
    </contour>
    <contour>
      <point x="8" y="415" type="move" name="JRLMZRMB"/>
      <point x="119" y="453" type="line" name="VWUMAPUP"/>
      <point x="84" y="415" type="line" name="XJBUXPFQ"/>
    </contour>
    <contour>
      <point x="324" y="116" type="move" name="ECUUNSVW"/>
      <point x="277" y="230" type="line" name="WZGBHWZC"/>
      <point x="191" y="116" type="line" name="SFLOLYUF"/>
    </contour>
    <contour>
      <point x="84" y="415" type="line" name="OYDAZZNX"/>
      <point x="253" y="188" name="JLMCDYKS"/>
      <point x="277" y="162" name="MDHVZQUS"/>
      <point x="324" y="116" type="curve" name="UUBBKEHT"/>
      <point x="191" y="116" type="line" name="FEEGCBME"/>
      <point x="172" y="162" name="TNDHLIGH"/>
      <point x="159" y="188" name="JILCHBBH"/>
      <point x="8" y="415" type="curve" name="QOXJXDAT"/>
    </contour>
    <contour>
      <point x="-26" y="596" type="line" name="ZESEBWPC"/>
      <point x="-139" y="596" type="line" name="XILEFSLX"/>
      <point x="-59" y="483" type="line" name="OOLRDEMH"/>
      <point x="55" y="483" type="line" name="WPQYCJKS"/>
    </contour>
  </outline>
</glyph>
<glyph name="sterling" format="2">
  <advance width="400"/>
  <unicode hex="00A3"/>
  <outline>
    <contour>
      <point x="483" y="237" type="move" smooth="yes" name="KRORGWFE"/>
      <point x="446" y="233" name="WFZJFFPS"/>
      <point x="396" y="232" name="KBHHTTRT"/>
      <point x="316" y="232" type="curve" name="MXTGVOPI"/>
      <point x="259" y="232" type="line" name="CJKAFOXA"/>
      <point x="297" y="239" name="LZQSVLJS"/>
      <point x="310" y="257" name="VFDIIYZV"/>
      <point x="262" y="325" type="curve" smooth="yes" name="QRCALLOH"/>
      <point x="242" y="353" name="KALCDPGX"/>
      <point x="210" y="387" name="SMMQNWGS"/>
      <point x="178" y="422" type="curve" smooth="yes" name="YKOZYUOE"/>
      <point x="147" y="456" name="GTMNVKIS"/>
      <point x="115" y="492" name="SVNPLEWM"/>
      <point x="93" y="522" type="curve" smooth="yes" name="YJATDBRT"/>
      <point x="40" y="597" name="IXLNIAEN"/>
      <point x="71" y="632" name="OZSOIVNC"/>
      <point x="139" y="632" type="curve" smooth="yes" name="NYZZRWKW"/>
      <point x="160" y="632" name="JZBJJAUU"/>
      <point x="170" y="632" name="LFVLEKQY"/>
      <point x="209" y="620" type="curve" name="MPHZTBGS"/>
    </contour>
    <contour>
      <point x="118" y="422" type="move" name="WPZMYQQB"/>
      <point x="178" y="422" type="line" name="IKMWJQDT"/>
      <point x="331" y="422" type="line" name="WUDKTHCN"/>
    </contour>
    <contour>
      <point x="176" y="587" type="move" name="RGDZPHWV"/>
      <point x="209" y="620" type="line" name="CGODJSVD"/>
      <point x="259" y="469" type="line" name="YZLUPAGG"/>
    </contour>
    <contour>
      <point x="441" y="237" type="move" name="RAOKLWOD"/>
      <point x="483" y="237" type="line" name="YLQFWRCH"/>
      <point x="513" y="116" type="line" name="JZNWMFIN"/>
    </contour>
    <contour>
      <point x="197" y="116" type="move" name="PXBZXFJK"/>
      <point x="259" y="232" type="line" name="TTDSTZBB"/>
      <point x="134" y="205" type="line" name="GNBWBHTO"/>
    </contour>
    <contour>
      <point x="59" y="312" type="move" name="UQBYWZDD"/>
      <point x="118" y="422" type="line" name="LRSBXNNG"/>
      <point x="3" y="391" type="line" name="OHNKVPBU"/>
    </contour>
    <contour>
      <point x="297" y="391" type="move" name="EPULRCMP"/>
      <point x="331" y="422" type="line" name="LZXILAAQ"/>
      <point x="346" y="312" type="line" name="HZYAMOIX"/>
    </contour>
    <contour>
      <point x="145" y="391" type="move" name="WQPOSXFQ"/>
      <point x="178" y="422" type="line" name="HESFWGNI"/>
      <point x="112" y="312" type="line" name="FCLWVQNI"/>
    </contour>
    <contour>
      <point x="40" y="391" type="move" name="NEPVLHIA"/>
      <point x="178" y="422" type="line" name="AMTDFPQC"/>
      <point x="217" y="312" type="line" name="PQMWCJHX"/>
    </contour>
    <contour>
      <point x="259" y="232" type="move" name="FFSJTBSH"/>
      <point x="308" y="232" name="DVKYCLZH"/>
      <point x="330" y="222" name="GHQZBYFT"/>
      <point x="288" y="205" type="curve" name="UMTJADFL"/>
    </contour>
    <contour>
      <point x="59" y="312" type="line" name="GNYZIYKZ"/>
      <point x="112" y="312" type="line" name="YQMCXPLM"/>
      <point x="133" y="288" name="QGLACKHP"/>
      <point x="151" y="268" name="BPNEIIUN"/>
      <point x="162" y="253" type="curve" smooth="yes" name="SVGGRHDU"/>
      <point x="184" y="221" name="HGOVVUPK"/>
      <point x="191" y="205" name="BLVJPFOY"/>
      <point x="160" y="205" type="curve" smooth="yes" name="TYVMRUIW"/>
      <point x="134" y="205" type="line" name="ZDGCYRDO"/>
      <point x="197" y="116" type="line" name="COUTXMFK"/>
      <point x="513" y="116" type="line" name="SSIMWMWT"/>
      <point x="441" y="237" type="line" name="ZYSSYJGT"/>
      <point x="430" y="214" name="RRJVWIGZ"/>
      <point x="402" y="207" name="LROSPVZU"/>
      <point x="288" y="205" type="curve" name="PJVHPSNC"/>
      <point x="284" y="220" name="NFZYIYKD"/>
      <point x="275" y="237" name="IXNOTRJS"/>
      <point x="261" y="256" type="curve" smooth="yes" name="RCXMBWCG"/>
      <point x="249" y="274" name="ESVFBXLZ"/>
      <point x="233" y="293" name="EKYGQLLE"/>
      <point x="217" y="312" type="curve" name="SRPAPNLL"/>
      <point x="346" y="312" type="line" name="IHTLWULB"/>
      <point x="297" y="391" type="line" name="ABDKWZFZ"/>
      <point x="145" y="391" type="line" name="QXGQURTZ"/>
      <point x="126" y="412" name="CCXKHYEY"/>
      <point x="108" y="432" name="YCQBDLMX"/>
      <point x="97" y="447" type="curve" smooth="yes" name="TAPAVHJJ"/>
      <point x="62" y="497" name="AYMBBQYS"/>
      <point x="77" y="517" name="ZOCWHZKO"/>
      <point x="116" y="517" type="curve" smooth="yes" name="XQUZHBEG"/>
      <point x="152" y="517" name="QPDZYFBU"/>
      <point x="191" y="504" name="ZQWHVHMF"/>
      <point x="259" y="469" type="curve" name="IATEXMOB"/>
      <point x="176" y="587" type="line" name="DMYNLLOT"/>
      <point x="14" y="631" name="UEUKIMRS"/>
      <point x="-107" y="591" name="JVCYDNOK"/>
      <point x="-11" y="456" type="curve" smooth="yes" name="KXFTDVMQ"/>
      <point x="4" y="435" name="LQPAAETK"/>
      <point x="22" y="412" name="SVXSFGXQ"/>
      <point x="40" y="391" type="curve" name="RYEOSLLP"/>
      <point x="3" y="391" type="line" name="SOOCYIVE"/>
    </contour>
  </outline>
</glyph>
<glyph name="brokenbar" format="2">
  <advance width="273"/>
  <unicode hex="00A6"/>
  <outline>
    <contour>
      <point x="-3" y="673" type="move" name="GDRFKIJG"/>
      <point x="125" y="492" type="line" name="HPWYLEUJ"/>
    </contour>
    <contour>
      <point x="348" y="177" type="move" name="YNQIORWU"/>
      <point x="220" y="358" type="line" name="ETUZCWBQ"/>
    </contour>
    <contour>
      <point x="378" y="63" type="move" name="CXHJXCQF"/>
      <point x="348" y="177" type="line" name="RNCAZWZE"/>
      <point x="280" y="63" type="line" name="YXMQNBGV"/>
    </contour>
    <contour>
      <point x="-133" y="646" type="move" name="NADGSXUC"/>
      <point x="-3" y="673" type="line" name="ZILYASZQ"/>
      <point x="-34" y="646" type="line" name="ASVFWQKM"/>
    </contour>
    <contour>
      <point x="156" y="377" type="move" name="WATZXZTZ"/>
      <point x="125" y="492" type="line" name="WKYLTBTS"/>
      <point x="57" y="377" type="line" name="LUGIBLTS"/>
    </contour>
    <contour>
      <point x="90" y="331" type="move" name="UUQXXCZF"/>
      <point x="220" y="358" type="line" name="ABSAKPZE"/>
      <point x="188" y="331" type="line" name="NWXLBWCU"/>
    </contour>
    <contour>
      <point x="57" y="377" type="line" name="IZAYUOWW"/>
      <point x="156" y="377" type="line" name="JYRPZEWC"/>
      <point x="-34" y="646" type="line" name="OULLJXTA"/>
      <point x="-133" y="646" type="line" name="WOZGISNL"/>
    </contour>
    <contour>
      <point x="90" y="331" type="line" name="GQTHIOTT"/>
      <point x="188" y="331" type="line" name="PSDWYWCT"/>
      <point x="378" y="63" type="line" name="VCQBSXUZ"/>
      <point x="280" y="63" type="line" name="XOPFNVCK"/>
    </contour>
  </outline>
</glyph>
<glyph name="copyright" format="2">
  <advance width="574"/>
  <unicode hex="00A9"/>
  <outline>
    <contour>
      <point x="420" y="322" type="move" smooth="yes" name="IWAIZXFK"/>
      <point x="364" y="310" name="QHRMHVQC"/>
      <point x="286" y="347" name="UHFSNJJG"/>
      <point x="240" y="413" type="curve" smooth="yes" name="NABESBAB"/>
      <point x="193" y="478" name="XXFRXCHK"/>
      <point x="221" y="517" name="TFLTFWWO"/>
      <point x="292" y="503" type="curve" name="VSXDUIVF"/>
    </contour>
    <contour>
      <point x="465" y="197" type="curve" smooth="yes" name="KTHBOFUU"/>
      <point x="590" y="197" name="NWPRWYNH"/>
      <point x="616" y="288" name="FGGMBFQQ"/>
      <point x="528" y="413" type="curve" smooth="yes" name="YKVAOXVF"/>
      <point x="440" y="537" name="BAWJDKQQ"/>
      <point x="285" y="628" name="ZCHITEMF"/>
      <point x="160" y="628" type="curve" smooth="yes" name="MJZTEGVD"/>
      <point x="34" y="628" name="GXPWCOCO"/>
      <point x="8" y="537" name="IDCHVQAV"/>
      <point x="96" y="413" type="curve" smooth="yes" name="YZHAKJUT"/>
      <point x="184" y="288" name="TTPMWZGL"/>
      <point x="339" y="197" name="BGNCQKKH"/>
    </contour>
    <contour>
      <point x="273" y="469" type="move" name="ZULDVEQS"/>
      <point x="292" y="503" type="line" name="JMKROTCC"/>
      <point x="325" y="396" type="line" name="XIDPBYSX"/>
    </contour>
    <contour>
      <point x="380" y="317" type="move" name="HPWCQDQM"/>
      <point x="420" y="322" type="line" name="HPFMOIEH"/>
      <point x="433" y="243" type="line" name="KGUOKEGW"/>
    </contour>
    <contour>
      <point x="400" y="176" type="curve" smooth="yes" name="VNVMBCHT"/>
      <point x="503" y="176" name="RIXPCSYZ"/>
      <point x="524" y="252" name="BWNOLDMN"/>
      <point x="451" y="356" type="curve" smooth="yes" name="CSLPUKXD"/>
      <point x="377" y="460" name="TJSQPIZZ"/>
      <point x="248" y="536" name="HMVFALNK"/>
      <point x="145" y="536" type="curve" smooth="yes" name="LTKOQFHL"/>
      <point x="41" y="536" name="SKUTOICK"/>
      <point x="20" y="460" name="HQXHPZSV"/>
      <point x="93" y="356" type="curve" smooth="yes" name="EDIDDLEA"/>
      <point x="167" y="252" name="ZBKOZRNM"/>
      <point x="296" y="176" name="GNIEHSIW"/>
    </contour>
    <contour>
      <point x="433" y="243" type="line" name="JHNWVCAW"/>
      <point x="420" y="235" name="XHXBVNEA"/>
      <point x="400" y="231" name="WCLGAEDW"/>
      <point x="377" y="231" type="curve" smooth="yes" name="SRXLXPPY"/>
      <point x="305" y="231" name="TEPLHRDC"/>
      <point x="215" y="281" name="WRMWHRQL"/>
      <point x="162" y="355" type="curve" smooth="yes" name="QKHNHJWN"/>
      <point x="110" y="430" name="GONIEORA"/>
      <point x="128" y="481" name="ZIBTVZGI"/>
      <point x="200" y="481" type="curve" smooth="yes" name="ZDHLRPBC"/>
      <point x="223" y="481" name="ZKTHSDPG"/>
      <point x="249" y="477" name="DNRKKAKH"/>
      <point x="273" y="469" type="curve" name="FHHEMZMD"/>
      <point x="325" y="396" type="line" name="ZJLJOORP"/>
      <point x="302" y="406" name="EWPVYGEM"/>
      <point x="274" y="417" name="YZVHXGIZ"/>
      <point x="252" y="417" type="curve" smooth="yes" name="ICRRDWQZ"/>
      <point x="218" y="417" name="SNMCWVUP"/>
      <point x="211" y="395" name="DOLPJGIM"/>
      <point x="238" y="356" type="curve" smooth="yes" name="GIOPKOVU"/>
      <point x="266" y="317" name="PHPTOIJE"/>
      <point x="305" y="296" name="LMFBCMZX"/>
      <point x="339" y="296" type="curve" smooth="yes" name="JKFKXIZK"/>
      <point x="359" y="296" name="OXLHHPSQ"/>
      <point x="373" y="305" name="WFVKFZFA"/>
      <point x="380" y="317" type="curve" name="NXHFYBJD"/>
    </contour>
    <contour>
      <point x="450" y="105" type="curve" smooth="yes" name="OMCNRTUI"/>
      <point x="302" y="105" name="HSBZQKRK"/>
      <point x="121" y="211" name="OWXHUZVU"/>
      <point x="19" y="356" type="curve" smooth="yes" name="KTOPDRAV"/>
      <point x="-84" y="501" name="CNKGVSPN"/>
      <point x="-53" y="607" name="WAPVHAAL"/>
      <point x="95" y="607" type="curve" smooth="yes" name="XWQDYDPK"/>
      <point x="242" y="607" name="AQMKOIRJ"/>
      <point x="423" y="501" name="XXNXDOKR"/>
      <point x="525" y="356" type="curve" smooth="yes" name="KASPGAPQ"/>
      <point x="628" y="211" name="LHTAPLYO"/>
      <point x="597" y="105" name="SEAEHABG"/>
    </contour>
  </outline>
</glyph>
<glyph name="macron" format="2">
  <advance width="346"/>
  <unicode hex="00AF"/>
  <outline>
    <contour>
      <point x="131" y="659" type="move" name="LOIGIQNO"/>
      <point x="-43" y="659" type="line" name="SGSNEWGP"/>
    </contour>
    <contour>
      <point x="-105" y="543" type="move" name="ISFROYVW"/>
      <point x="-43" y="659" type="line" name="TTJRLDDN"/>
      <point x="-168" y="632" type="line" name="WTSDMXAI"/>
    </contour>
    <contour>
      <point x="94" y="632" type="move" name="LULLFCSI"/>
      <point x="131" y="659" type="line" name="YDOCFSLH"/>
      <point x="156" y="543" type="line" name="KOWDZLFV"/>
    </contour>
    <contour>
      <point x="-105" y="543" type="line" name="DNAKAJNV"/>
      <point x="156" y="543" type="line" name="RGMDSVBG"/>
      <point x="94" y="632" type="line" name="EDNUCMVO"/>
      <point x="-168" y="632" type="line" name="RERBFHAD"/>
    </contour>
  </outline>
</glyph>
<glyph name="twosuperior" format="2">
  <advance width="289"/>
  <unicode hex="00B2"/>
  <outline>
    <contour>
      <point x="252" y="415" type="move" smooth="yes" name="GHASQSRJ"/>
      <point x="226" y="412" name="IUSGEBQW"/>
      <point x="187" y="411" name="QXVKZFDZ"/>
      <point x="127" y="413" type="curve" name="ZQWDJGUT"/>
      <point x="108" y="492" name="YAXGVCBA"/>
      <point x="177" y="517" name="XOFAFDTX"/>
      <point x="130" y="584" type="curve" smooth="yes" name="IJTCSEFS"/>
      <point x="103" y="622" name="SXOELCQO"/>
      <point x="58" y="640" name="GLHWOSNT"/>
      <point x="8" y="640" type="curve" smooth="yes" name="KIVYLECJ"/>
      <point x="-8" y="640" name="JCUBUTBD"/>
      <point x="-23" y="638" name="XMAUUFKX"/>
      <point x="-36" y="635" type="curve" smooth="yes" name="GBUAMFHQ"/>
    </contour>
    <contour>
      <point x="-82" y="509" type="move" name="LEGWCFIG"/>
      <point x="-36" y="635" type="line" name="NLYQWXVD"/>
      <point x="-142" y="594" type="line" name="XXZQGZAX"/>
    </contour>
    <contour>
      <point x="213" y="393" type="move" name="FBVKOYGF"/>
      <point x="252" y="415" type="line" name="MWPUUIWI"/>
      <point x="263" y="307" type="line" name="KLBSXAKD"/>
    </contour>
    <contour>
      <point x="118" y="375" type="move" name="JSECTOTJ"/>
      <point x="127" y="413" type="line" name="KROWKOKR"/>
      <point x="49" y="307" type="line" name="FQMPGUQD"/>
    </contour>
    <contour>
      <point x="49" y="307" type="curve" name="PNJENKNQ"/>
      <point x="263" y="307" type="line" name="BXQZPHYX"/>
      <point x="213" y="393" type="line" name="ZEPABTHC"/>
      <point x="204" y="382" name="BOJPPOJN"/>
      <point x="184" y="375" name="NLXTIWAE"/>
      <point x="118" y="375" type="curve" name="XOLFBNSB"/>
      <point x="125" y="425" name="NEBYEADZ"/>
      <point x="169" y="449" name="TBROTRTO"/>
      <point x="119" y="519" type="curve" smooth="yes" name="DRSGDJZO"/>
      <point x="78" y="578" name="FAYNJEZE"/>
      <point x="10" y="605" name="EZABBSVW"/>
      <point x="-62" y="605" type="curve" smooth="yes" name="KPWUJZRE"/>
      <point x="-91" y="605" name="HMOIBRVT"/>
      <point x="-117" y="601" name="HZMUCYCA"/>
      <point x="-142" y="594" type="curve" name="AVLAHOBE"/>
      <point x="-82" y="509" type="line" name="QEMAIVJN"/>
      <point x="-69" y="526" name="FYQLRCAG"/>
      <point x="-48" y="535" name="BSSGIAFK"/>
      <point x="-23" y="535" type="curve" smooth="yes" name="APDWAEWC"/>
      <point x="5" y="535" name="NSYEXHKC"/>
      <point x="28" y="524" name="EXGJHBKP"/>
      <point x="41" y="506" type="curve" smooth="yes" name="ZHODVPOU"/>
      <point x="81" y="449" name="VTJNEWBE"/>
      <point x="-7" y="418" name="ELDNQLCN"/>
    </contour>
  </outline>
</glyph>
<glyph name="periodcentered" format="2">
  <advance width="205"/>
  <unicode hex="00B7"/>
  <outline>
    <contour>
      <point x="-4" y="406" type="move" name="JHZPYSGX"/>
      <point x="142" y="420" type="line" name="SPZNVLRZ"/>
      <point x="190" y="292" type="line" name="EWEGOKCW"/>
    </contour>
    <contour>
      <point x="76" y="292" type="move" name="PHNGTFYJ"/>
      <point x="142" y="420" type="line" name="QXRCYFJA"/>
      <point x="109" y="406" type="line" name="NQZWNOPH"/>
    </contour>
    <contour>
      <point x="76" y="292" type="line" name="ZESEBWPC"/>
      <point x="190" y="292" type="line" name="XILEFSLX"/>
      <point x="109" y="406" type="line" name="OOLRDEMH"/>
      <point x="-4" y="406" type="line" name="WPQYCJKS"/>
    </contour>
  </outline>
</glyph>
<glyph name="ordmasculine" format="2">
  <advance width="348"/>
  <unicode hex="00BA"/>
  <outline>
    <contour>
      <point x="213" y="421" type="curve" smooth="yes" name="LEFIRBRP"/>
      <point x="155" y="421" name="TYIYTREH"/>
      <point x="81" y="468" name="IGYOUACN"/>
      <point x="36" y="531" type="curve" smooth="yes" name="CSHHJBXN"/>
      <point x="-9" y="596" name="JSPJHATX"/>
      <point x="-1" y="642" name="HTLPNASZ"/>
      <point x="57" y="642" type="curve" smooth="yes" name="AOHJZJJB"/>
      <point x="115" y="642" name="MYGAXYUW"/>
      <point x="188" y="596" name="HCAGVFGB"/>
      <point x="234" y="531" type="curve" smooth="yes" name="CTQNKMKG"/>
      <point x="279" y="468" name="XRDQSCDY"/>
      <point x="271" y="421" name="WNKXIRHY"/>
    </contour>
    <contour>
      <point x="386" y="305" type="move" name="AHBASXNG"/>
      <point x="204" y="305" type="line" name="FWGGRKND"/>
    </contour>
    <contour>
      <point x="145" y="196" type="move" name="SIAMBFMI"/>
      <point x="204" y="305" type="line" name="AWJEQRGB"/>
      <point x="91" y="273" type="line" name="OIRWJVVO"/>
    </contour>
    <contour>
      <point x="345" y="273" type="move" name="EODMASAK"/>
      <point x="386" y="305" type="line" name="JABROEUQ"/>
      <point x="400" y="196" type="line" name="XPRWKGXC"/>
    </contour>
    <contour>
      <point x="139" y="385" type="curve" smooth="yes" name="OBXJBVPW"/>
      <point x="173" y="385" name="SEAHLDOV"/>
      <point x="174" y="416" name="XWICHUDC"/>
      <point x="142" y="461" type="curve" smooth="yes" name="YGTTLSGW"/>
      <point x="110" y="506" name="TYYMYAZK"/>
      <point x="66" y="536" name="EYFFQSEJ"/>
      <point x="32" y="536" type="curve" smooth="yes" name="CASDQJGP"/>
      <point x="-3" y="536" name="YRPPVZSY"/>
      <point x="-4" y="506" name="QKQOHBTN"/>
      <point x="28" y="461" type="curve" smooth="yes" name="XDRJPSBD"/>
      <point x="59" y="416" name="YNQVTUJI"/>
      <point x="104" y="385" name="FDGGYRZH"/>
    </contour>
    <contour>
      <point x="188" y="315" type="curve" smooth="yes" name="EKVDARGE"/>
      <point x="107" y="315" name="UHOCGWHG"/>
      <point x="3" y="377" name="FIGTWIYH"/>
      <point x="-56" y="461" type="curve" smooth="yes" name="NMAJQRSD"/>
      <point x="-115" y="544" name="HAWKJXIO"/>
      <point x="-99" y="606" name="CEUMMPMX"/>
      <point x="-18" y="606" type="curve" smooth="yes" name="QBMWTOJW"/>
      <point x="63" y="606" name="AJHFVMUD"/>
      <point x="167" y="544" name="OHEOUFNB"/>
      <point x="226" y="461" type="curve" smooth="yes" name="EEJGSVBM"/>
      <point x="285" y="377" name="XNXFQWEU"/>
      <point x="269" y="315" name="SCUNQSLI"/>
    </contour>
    <contour>
      <point x="145" y="196" type="line" name="EMZHMTKT"/>
      <point x="400" y="196" type="line" name="DDNPUNAC"/>
      <point x="345" y="273" type="line" name="ACXYMYQU"/>
      <point x="91" y="273" type="line" name="ZGRUOLMJ"/>
    </contour>
  </outline>
</glyph>
<glyph name="onehalf" format="2">
  <advance width="664"/>
  <unicode hex="00BD"/>
  <outline>
    <contour>
      <point x="-36" y="616" type="move" smooth="yes" name="LGAWLIOF"/>
      <point x="-18" y="622" name="FPELBJBQ"/>
      <point x="3" y="628" name="RTEOSXII"/>
      <point x="28" y="633" type="curve" name="KSZPWNFU"/>
      <point x="41" y="613" name="MVMHRIMX"/>
      <point x="54" y="593" name="WZORDRQK"/>
      <point x="100" y="529" type="curve" smooth="yes" name="ZVAXMOYV"/>
      <point x="180" y="415" type="line" name="ECEMLJVK"/>
    </contour>
    <contour>
      <point x="211" y="307" type="move" name="HMCBDXWQ"/>
      <point x="180" y="415" type="line" name="NKQGKGLT"/>
      <point x="96" y="307" type="line" name="AHVUZJUJ"/>
    </contour>
    <contour>
      <point x="-82" y="490" type="move" name="YKSBPDZL"/>
      <point x="-36" y="616" type="line" name="SJSBMLGJ"/>
      <point x="-144" y="577" type="line" name="EVCDMOCG"/>
    </contour>
    <contour>
      <point x="-36" y="517" type="move" name="FBAXOHBA"/>
      <point x="28" y="633" type="line" name="PARNAAAU"/>
      <point x="-5" y="606" type="line" name="LGHUHPJI"/>
    </contour>
    <contour>
      <point x="314" y="630" type="move" name="CVGMOIPZ"/>
      <point x="355" y="223" type="line" name="HAMZUUTH"/>
    </contour>
    <contour>
      <point x="353" y="116" type="move" name="JRLMZRMB"/>
      <point x="355" y="223" type="line" name="VWUMAPUP"/>
      <point x="264" y="116" type="line" name="XJBUXPFQ"/>
    </contour>
    <contour>
      <point x="216" y="596" type="move" name="ECUUNSVW"/>
      <point x="314" y="630" type="line" name="WZGBHWZC"/>
      <point x="305" y="596" type="line" name="SFLOLYUF"/>
    </contour>
    <contour>
      <point x="748" y="223" type="move" smooth="yes" name="GHASQSRJ"/>
      <point x="722" y="220" name="IUSGEBQW"/>
      <point x="682" y="220" name="QXVKZFDZ"/>
      <point x="623" y="221" type="curve" name="ZQWDJGUT"/>
      <point x="604" y="300" name="YAXGVCBA"/>
      <point x="673" y="325" name="XOFAFDTX"/>
      <point x="626" y="392" type="curve" smooth="yes" name="IJTCSEFS"/>
      <point x="599" y="430" name="SXOELCQO"/>
      <point x="554" y="449" name="GLHWOSNT"/>
      <point x="504" y="449" type="curve" smooth="yes" name="KIVYLECJ"/>
      <point x="488" y="449" name="JCUBUTBD"/>
      <point x="473" y="447" name="XMAUUFKX"/>
      <point x="460" y="443" type="curve" smooth="yes" name="GBUAMFHQ"/>
    </contour>
    <contour>
      <point x="414" y="317" type="move" name="LEGWCFIG"/>
      <point x="460" y="443" type="line" name="NLYQWXVD"/>
      <point x="354" y="402" type="line" name="XXZQGZAX"/>
    </contour>
    <contour>
      <point x="709" y="201" type="move" name="FBVKOYGF"/>
      <point x="748" y="223" type="line" name="MWPUUIWI"/>
      <point x="759" y="116" type="line" name="KLBSXAKD"/>
    </contour>
    <contour>
      <point x="614" y="184" type="move" name="JSECTOTJ"/>
      <point x="623" y="221" type="line" name="KROWKOKR"/>
      <point x="545" y="116" type="line" name="FQMPGUQD"/>
    </contour>
    <contour>
      <point x="96" y="307" type="curve" name="ARZLISJL"/>
      <point x="211" y="307" type="line" name="QXANKEHL"/>
      <point x="189" y="325" name="GWWAUHRJ"/>
      <point x="170" y="348" name="KIDUITSM"/>
      <point x="92" y="458" type="curve" smooth="yes" name="FKAFOLVP"/>
      <point x="20" y="560" name="NSSIJYWL"/>
      <point x="7" y="582" name="SHSZPXKQ"/>
      <point x="-5" y="606" type="curve" name="EYRTSBFS"/>
      <point x="-144" y="577" type="line" name="RBLATXZN"/>
      <point x="-82" y="490" type="line" name="TPJXRXON"/>
      <point x="-73" y="500" name="SJVLSSPI"/>
      <point x="-59" y="510" name="XBVYSNVQ"/>
      <point x="-36" y="517" type="curve" name="NJFEQRXK"/>
      <point x="-24" y="502" name="AJXKPJNG"/>
      <point x="-14" y="488" name="CINXUBTQ"/>
      <point x="7" y="458" type="curve" smooth="yes" name="AJTIUQIS"/>
      <point x="84" y="348" name="XGHHKQQS"/>
      <point x="96" y="326" name="RNIWAJYS"/>
    </contour>
    <contour>
      <point x="264" y="116" type="line" name="CPMECJON"/>
      <point x="353" y="116" type="line" name="PEPYQPOY"/>
      <point x="305" y="596" type="line" name="ZQFKFAXG"/>
      <point x="216" y="596" type="line" name="OPUSLGDN"/>
    </contour>
    <contour>
      <point x="545" y="116" type="curve" name="PNJENKNQ"/>
      <point x="759" y="116" type="line" name="BXQZPHYX"/>
      <point x="709" y="201" type="line" name="ZEPABTHC"/>
      <point x="700" y="190" name="BOJPPOJN"/>
      <point x="680" y="184" name="NLXTIWAE"/>
      <point x="614" y="184" type="curve" name="XOLFBNSB"/>
      <point x="621" y="233" name="NEBYEADZ"/>
      <point x="665" y="257" name="TBROTRTO"/>
      <point x="615" y="328" type="curve" smooth="yes" name="DRSGDJZO"/>
      <point x="573" y="386" name="FAYNJEZE"/>
      <point x="506" y="413" name="EZABBSVW"/>
      <point x="433" y="413" type="curve" smooth="yes" name="KPWUJZRE"/>
      <point x="404" y="413" name="HMOIBRVT"/>
      <point x="379" y="410" name="HZMUCYCA"/>
      <point x="354" y="402" type="curve" name="AVLAHOBE"/>
      <point x="414" y="317" type="line" name="QEMAIVJN"/>
      <point x="427" y="334" name="FYQLRCAG"/>
      <point x="448" y="343" name="BSSGIAFK"/>
      <point x="473" y="343" type="curve" smooth="yes" name="APDWAEWC"/>
      <point x="501" y="343" name="NSYEXHKC"/>
      <point x="524" y="332" name="EXGJHBKP"/>
      <point x="537" y="314" type="curve" smooth="yes" name="ZHODVPOU"/>
      <point x="577" y="258" name="VTJNEWBE"/>
      <point x="488" y="227" name="ELDNQLCN"/>
    </contour>
  </outline>
</glyph>
<glyph name="Aring" format="2">
  <advance width="474"/>
  <unicode hex="00C5"/>
  <outline>
    <contour>
      <point x="250" y="236" type="move" name="GICMEZCQ"/>
      <point x="216" y="333" type="line" name="QDVCQSNO"/>
      <point x="120" y="611" type="line" name="OXQKBGAT"/>
      <point x="160" y="611" type="line" name="EXEWBVRM"/>
      <point x="457" y="333" type="line" name="KTYDZKVY"/>
      <point x="559" y="236" type="line" name="SSJOSDEF"/>
    </contour>
    <contour>
      <point x="457" y="333" type="move" name="AYNQMHFI"/>
      <point x="216" y="333" type="line" name="BTTYPPUR"/>
    </contour>
    <contour>
      <point x="-2" y="596" type="move" name="OPZYABCV"/>
      <point x="120" y="611" type="line" name="CQBSJRTU"/>
      <point x="146" y="457" type="line" name="XMYUAXWT"/>
      <point x="160" y="611" type="line" name="RMQWFWLY"/>
      <point x="106" y="596" type="line" name="DIZUAXXI"/>
    </contour>
    <contour>
      <point x="197" y="307" type="move" name="HXSFFLIG"/>
      <point x="216" y="333" type="line" name="DKAOHZWI"/>
      <point x="231" y="219" type="line" name="AHKOLEYK"/>
    </contour>
    <contour>
      <point x="306" y="307" type="move" name="PCRHERUK"/>
      <point x="457" y="333" type="line" name="XREZEBDK"/>
      <point x="397" y="219" type="line" name="TDGTECWF"/>
    </contour>
    <contour>
      <point x="297" y="116" type="move" name="VYPIWFWC"/>
      <point x="250" y="236" type="line" name="HDOGQIGX"/>
      <point x="152" y="116" type="line" name="NZGOSKZA"/>
    </contour>
    <contour>
      <point x="632" y="116" type="move" name="CJOGMKGO"/>
      <point x="559" y="236" type="line" name="PSATSMVU"/>
      <point x="478" y="116" type="line" name="SYRAAAFE"/>
    </contour>
    <contour>
      <point x="120" y="611" type="move" name="YUMJSPXG"/>
    </contour>
    <contour>
      <point x="160" y="611" type="move" name="XAZLIEJS"/>
    </contour>
    <contour>
      <point x="231" y="219" type="curve" name="MIGYIWMX"/>
      <point x="397" y="219" type="line" name="XHNHHZMY"/>
      <point x="457" y="159" name="TFPWPBXU"/>
      <point x="471" y="138" name="APOQMTKI"/>
      <point x="478" y="116" type="curve" name="LXJJAAHU"/>
      <point x="632" y="116" type="line" name="QMTEBQKX"/>
      <point x="591" y="144" name="VTSSQZZB"/>
      <point x="547" y="183" name="MFRKAQMO"/>
      <point x="352" y="362" type="curve" smooth="yes" name="BBVCQGFO"/>
      <point x="169" y="531" name="VBUIACVY"/>
      <point x="131" y="569" name="IVUWITLU"/>
      <point x="106" y="596" type="curve" name="OYGQPRYK"/>
      <point x="-2" y="596" type="line" name="OVDTSNDK"/>
      <point x="16" y="568" name="SCPJTVRB"/>
      <point x="29" y="525" name="GHTLXEXR"/>
      <point x="83" y="362" type="curve" smooth="yes" name="FAKPZKNQ"/>
      <point x="143" y="183" name="BCRLIWSY"/>
      <point x="153" y="144" name="UPKNOQFJ"/>
      <point x="152" y="116" type="curve" name="YCAWTIXK"/>
      <point x="297" y="116" type="line" name="DHOFNUAJ"/>
      <point x="273" y="138" name="YUBLLAGW"/>
      <point x="256" y="159" name="AYEDQEOW"/>
    </contour>
    <contour>
      <point x="146" y="457" type="line" name="VECPRSGR"/>
      <point x="306" y="307" type="line" name="ONMDPKHX"/>
      <point x="197" y="307" type="line" name="THENTKFT"/>
    </contour>
    <contour>
      <point x="186" y="761" type="curve" smooth="yes" name="HHMFTAMQ"/>
      <point x="229" y="761" name="VFATWUJL"/>
      <point x="239" y="790" name="BRQJWCST"/>
      <point x="210" y="831" type="curve" smooth="yes" name="OBIOFBBA"/>
      <point x="181" y="871" name="WIOZFHLB"/>
      <point x="131" y="900" name="JOGKENBO"/>
      <point x="88" y="900" type="curve" smooth="yes" name="EBIXPZPA"/>
      <point x="46" y="900" name="BCGVZHKU"/>
      <point x="38" y="871" name="ALNTWANU"/>
      <point x="67" y="831" type="curve" smooth="yes" name="TAIGPFQU"/>
      <point x="96" y="790" name="BNFKICBX"/>
      <point x="145" y="761" name="CXOKEGYB"/>
    </contour>
    <contour>
      <point x="105" y="734" type="curve" smooth="yes" name="APOMLGMY"/>
      <point x="133" y="734" name="OYWZEMOQ"/>
      <point x="138" y="752" name="SKUHCAVT"/>
      <point x="118" y="781" type="curve" smooth="yes" name="HLVUABIX"/>
      <point x="98" y="809" name="FWYJUKXX"/>
      <point x="67" y="827" name="LZTOQHJN"/>
      <point x="39" y="827" type="curve" smooth="yes" name="VZRBYYTG"/>
      <point x="12" y="827" name="ZWSWMUXO"/>
      <point x="9" y="809" name="YDHYXWPX"/>
      <point x="29" y="781" type="curve" smooth="yes" name="TLGFPBRY"/>
      <point x="49" y="752" name="SHDOBWMR"/>
      <point x="78" y="734" name="OAOBLYLY"/>
    </contour>
    <contour>
      <point x="145" y="677" type="curve" smooth="yes" name="XRZMPONM"/>
      <point x="84" y="677" name="IWSRCKXS"/>
      <point x="10" y="721" name="QOFWBVRG"/>
      <point x="-32" y="781" type="curve" smooth="yes" name="OYPZPFUL"/>
      <point x="-74" y="839" name="YNRHJFKS"/>
      <point x="-61" y="883" name="ZHKSRDYW"/>
      <point x="0" y="883" type="curve" smooth="yes" name="OFMDVYBG"/>
      <point x="63" y="883" name="PJIKWDGM"/>
      <point x="138" y="839" name="OXTRFILF"/>
      <point x="179" y="781" type="curve" smooth="yes" name="CVBLCILE"/>
      <point x="222" y="721" name="LLOWTTHX"/>
      <point x="208" y="677" name="PUHSWOWJ"/>
    </contour>
  </outline>
</glyph>
<glyph name="Icircumflex" format="2">
  <advance width="225"/>
  <unicode hex="00CE"/>
  <outline>
    <contour>
      <point x="9" y="623" type="move" name="JKIZUAWY"/>
      <point x="287" y="230" type="line" name="IKYWWOLM"/>
    </contour>
    <contour>
      <point x="337" y="116" type="move" name="JRLMZRMB"/>
      <point x="287" y="230" type="line" name="VWUMAPUP"/>
      <point x="198" y="116" type="line" name="XJBUXPFQ"/>
    </contour>
    <contour>
      <point x="-142" y="596" type="move" name="ECUUNSVW"/>
      <point x="9" y="623" type="line" name="WZGBHWZC"/>
      <point x="-3" y="596" type="line" name="SFLOLYUF"/>
    </contour>
    <contour>
      <point x="198" y="116" type="curve" name="MPEQAMMH"/>
      <point x="337" y="116" type="line" name="AQXHJDIP"/>
      <point x="303" y="144" name="GMHOCUQV"/>
      <point x="271" y="183" name="DYYCJHJS"/>
      <point x="144" y="362" type="curve" smooth="yes" name="SKRQHPHT"/>
      <point x="24" y="532" name="FHMLNKRW"/>
      <point x="3" y="569" name="ZAUWLJDQ"/>
      <point x="-3" y="596" type="curve" name="HXLEOYGE"/>
      <point x="-142" y="596" type="line" name="ZMCOAEXK"/>
      <point x="-109" y="569" name="CJSLTGXE"/>
      <point x="-78" y="532" name="IMBJAEUZ"/>
      <point x="42" y="362" type="curve" smooth="yes" name="ASLTJWFP"/>
      <point x="169" y="183" name="EQAGAFRV"/>
      <point x="192" y="144" name="YORXKDLF"/>
    </contour>
    <contour>
      <point x="-92" y="802" type="move" name="HGWQJEXT"/>
      <point x="-73" y="854" type="line" name="OKCAJDUE"/>
      <point x="20" y="802" type="line" name="PWIYTAVU"/>
    </contour>
    <contour>
      <point x="-102" y="692" type="move" name="SAWZNQBB"/>
      <point x="-92" y="802" type="line" name="JBOBMLZL"/>
      <point x="-207" y="692" type="line" name="RGGYSVGZ"/>
    </contour>
    <contour>
      <point x="91" y="692" type="move" name="EKLXRYOY"/>
      <point x="20" y="802" type="line" name="TSMRCCWM"/>
      <point x="-14" y="692" type="line" name="XETUSRFI"/>
    </contour>
    <contour>
      <point x="-158" y="834" type="move" name="RJIJMKGM"/>
      <point x="-73" y="854" type="line" name="PBSLPXJM"/>
      <point x="-85" y="730" type="line" name="XFASUVZR"/>
    </contour>
    <contour>
      <point x="-14" y="692" type="line" name="CAPEV"/>
      <point x="91" y="692" type="line" name="JODIX"/>
      <point x="-158" y="834" type="line" name="AKTAQ"/>
      <point x="-207" y="692" type="line" name="YOGIE"/>
      <point x="-102" y="692" type="line" name="CIRLU"/>
      <point x="-85" y="730" type="line" name="ZUKPU"/>
    </contour>
  </outline>
</glyph>
<glyph name="Ucircumflex" format="2">
  <advance width="484"/>
  <unicode hex="00DB"/>
  <outline>
    <contour>
      <point x="277" y="623" type="move" name="XNTOXYFL"/>
      <point x="469" y="352" type="line" smooth="yes" name="UIKHKYFD"/>
      <point x="526" y="271" name="CRVPPERY"/>
      <point x="506" y="220" name="IEMLKHRX"/>
      <point x="423" y="220" type="curve" smooth="yes" name="SCXXWPPQ"/>
      <point x="340" y="220" name="FXVYQPWZ"/>
      <point x="248" y="271" name="OYJYTHHD"/>
      <point x="191" y="352" type="curve" smooth="yes" name="NLXIXJZD"/>
      <point x="-1" y="623" type="line" name="ZFSGOLGC"/>
    </contour>
    <contour>
      <point x="-152" y="596" type="move" name="ECUUNSVW"/>
      <point x="-1" y="623" type="line" name="WZGBHWZC"/>
      <point x="-12" y="596" type="line" name="SFLOLYUF"/>
    </contour>
    <contour>
      <point x="126" y="596" type="move" name="NUKKCNGE"/>
      <point x="277" y="623" type="line" name="POROMZGU"/>
      <point x="266" y="596" type="line" name="FQNYHCGX"/>
    </contour>
    <contour>
      <point x="405" y="104" type="curve" smooth="yes" name="NBKAZKIF"/>
      <point x="294" y="104" name="MRROQZHA"/>
      <point x="170" y="168" name="ZKFHVSTM"/>
      <point x="96" y="273" type="curve" smooth="yes" name="JCZAGKBP"/>
      <point x="33" y="362" type="line" smooth="yes" name="FNHOUCZH"/>
      <point x="-87" y="532" name="JFYUOPXS"/>
      <point x="-118" y="569" name="WYKFIZYS"/>
      <point x="-152" y="596" type="curve" name="OJWUTBGH"/>
      <point x="-12" y="596" type="line" name="MHINACOT"/>
      <point x="-7" y="569" name="DYJNSSMA"/>
      <point x="14" y="532" name="VPOKTLLO"/>
      <point x="134" y="362" type="curve" smooth="yes" name="XKYBJQFM"/>
      <point x="187" y="288" type="line" smooth="yes" name="ZRBHOVKL"/>
      <point x="226" y="232" name="RIESGZAD"/>
      <point x="286" y="196" name="GKPCELCP"/>
      <point x="341" y="196" type="curve" smooth="yes" name="EGPWFZEB"/>
      <point x="395" y="196" name="DLEJQQMR"/>
      <point x="403" y="232" name="BOTQIWYL"/>
      <point x="363" y="288" type="curve" smooth="yes" name="JCKMQIYM"/>
      <point x="311" y="362" type="line" smooth="yes" name="NJYKDZTE"/>
      <point x="191" y="532" name="JCVRSMLZ"/>
      <point x="160" y="569" name="HPYDCBAQ"/>
      <point x="126" y="596" type="curve" name="TYALALLU"/>
      <point x="266" y="596" type="line" name="KFLRYVBT"/>
      <point x="271" y="569" name="YANYVTJT"/>
      <point x="292" y="532" name="JSANITPQ"/>
      <point x="412" y="362" type="curve" smooth="yes" name="AHEURRUA"/>
      <point x="475" y="273" type="line" smooth="yes" name="LEAWLKJK"/>
      <point x="550" y="168" name="UBQYLRWC"/>
      <point x="516" y="104" name="TPWBAEKE"/>
    </contour>
    <contour>
      <point x="90" y="802" type="move" name="HGWQJEXT"/>
      <point x="109" y="854" type="line" name="OKCAJDUE"/>
      <point x="202" y="802" type="line" name="PWIYTAVU"/>
    </contour>
    <contour>
      <point x="80" y="692" type="move" name="SAWZNQBB"/>
      <point x="90" y="802" type="line" name="JBOBMLZL"/>
      <point x="-25" y="692" type="line" name="RGGYSVGZ"/>
    </contour>
    <contour>
      <point x="273" y="692" type="move" name="EKLXRYOY"/>
      <point x="202" y="802" type="line" name="TSMRCCWM"/>
      <point x="168" y="692" type="line" name="XETUSRFI"/>
    </contour>
    <contour>
      <point x="24" y="834" type="move" name="RJIJMKGM"/>
      <point x="109" y="854" type="line" name="PBSLPXJM"/>
      <point x="97" y="730" type="line" name="XFASUVZR"/>
    </contour>
    <contour>
      <point x="168" y="692" type="line" name="CAPEV"/>
      <point x="273" y="692" type="line" name="JODIX"/>
      <point x="24" y="834" type="line" name="AKTAQ"/>
      <point x="-25" y="692" type="line" name="YOGIE"/>
      <point x="80" y="692" type="line" name="CIRLU"/>
      <point x="97" y="730" type="line" name="ZUKPU"/>
    </contour>
  </outline>
</glyph>
<glyph name="germandbls" format="2">
  <advance width="754"/>
  <unicode hex="00DF"/>
  <outline>
    <contour>
      <point x="725" y="616" type="move" smooth="yes" name="HGAOADUK"/>
      <point x="691" y="625" name="DIKFFTRL"/>
      <point x="660" y="630" name="LBDKAYGN"/>
      <point x="633" y="630" type="curve" smooth="yes" name="OWIVUKTQ"/>
      <point x="558" y="630" name="BXEWGFUP"/>
      <point x="538" y="593" name="ZWTUNPCV"/>
      <point x="581" y="533" type="curve" smooth="yes" name="ZSDEAYMY"/>
      <point x="620" y="478" name="ABDATWOE"/>
      <point x="691" y="452" name="IPDPFLNX"/>
      <point x="763" y="427" type="curve" smooth="yes" name="FELNGQYN"/>
      <point x="835" y="401" name="KWLVIZWL"/>
      <point x="906" y="377" name="TUJLLNGD"/>
      <point x="945" y="322" type="curve" smooth="yes" name="VJHJZLKX"/>
      <point x="990" y="258" name="MDLAWNKL"/>
      <point x="966" y="222" name="SWWNJWIN"/>
      <point x="888" y="222" type="curve" smooth="yes" name="PJHMPSFO"/>
      <point x="859" y="222" name="GCTGNPNH"/>
      <point x="822" y="227" name="YUGZKYSW"/>
      <point x="783" y="237" type="curve" smooth="yes" name="HLYAXCSJ"/>
    </contour>
    <contour>
      <point x="691" y="585" type="move" name="XYGWLLJZ"/>
      <point x="725" y="616" type="line" name="KMXAMPOA"/>
      <point x="773" y="469" type="line" name="NRFSNWVX"/>
    </contour>
    <contour>
      <point x="717" y="126" type="move" name="SFQYRYIF"/>
      <point x="783" y="237" type="line" name="CJMHXZGC"/>
      <point x="634" y="244" type="line" name="NKUKGJGC"/>
    </contour>
    <contour>
      <point x="634" y="244" type="curve" name="MVBYHZBE"/>
      <point x="717" y="126" type="line" name="MBHTEPCY"/>
      <point x="774" y="114" name="UXMIANLD"/>
      <point x="823" y="106" name="DAUFLZTU"/>
      <point x="866" y="106" type="curve" smooth="yes" name="JSKVWBBK"/>
      <point x="973" y="106" name="RCZAIVVZ"/>
      <point x="1014" y="158" name="QHODYGEX"/>
      <point x="944" y="257" type="curve" smooth="yes" name="YRSRLOKI"/>
      <point x="889" y="335" name="DORKE"/>
      <point x="801" y="367" name="DARRL"/>
      <point x="723" y="394" type="curve" smooth="yes" name="KOPRR"/>
      <point x="660" y="415" name="SECOV"/>
      <point x="604" y="433" name="MARBN"/>
      <point x="580" y="468" type="curve" smooth="yes" name="PAZZTPOD"/>
      <point x="561" y="495" name="GCZHOKOJ"/>
      <point x="566" y="516" name="JRVISHMB"/>
      <point x="610" y="516" type="curve" smooth="yes" name="CIYVWSZC"/>
      <point x="652" y="516" name="IBBTRCZS"/>
      <point x="713" y="500" name="XIIXDEMD"/>
      <point x="773" y="469" type="curve" name="EKZMXCVF"/>
      <point x="691" y="585" type="line" name="AQWSYPXP"/>
      <point x="640" y="597" name="OGAMWLBV"/>
      <point x="595" y="604" name="KCPTFDVX"/>
      <point x="557" y="604" type="curve" smooth="yes" name="TADKNXZM"/>
      <point x="449" y="604" name="OTIANTSU"/>
      <point x="415" y="550" name="PBNHVKZS"/>
      <point x="481" y="456" type="curve" smooth="yes" name="DQVQIGVS"/>
      <point x="537" y="377" name="ISACE"/>
      <point x="625" y="345" name="FOFZE"/>
      <point x="702" y="319" type="curve" smooth="yes" name="FIYCA"/>
      <point x="766" y="297" name="CRIED"/>
      <point x="822" y="280" name="JINEK"/>
      <point x="846" y="246" type="curve" smooth="yes" name="KXCYJCUL"/>
      <point x="866" y="217" name="UYVIAXBU"/>
      <point x="859" y="196" name="NFDEZUFD"/>
      <point x="811" y="196" type="curve" smooth="yes" name="KOFIRWQM"/>
      <point x="765" y="196" name="AUESRPQP"/>
      <point x="699" y="211" name="XJUWYXKK"/>
    </contour>
    <contour>
      <point x="192" y="616" type="move" smooth="yes" name="HGAOADUK"/>
      <point x="158" y="625" name="DIKFFTRL"/>
      <point x="127" y="630" name="LBDKAYGN"/>
      <point x="100" y="630" type="curve" smooth="yes" name="OWIVUKTQ"/>
      <point x="25" y="630" name="BXEWGFUP"/>
      <point x="5" y="593" name="ZWTUNPCV"/>
      <point x="48" y="533" type="curve" smooth="yes" name="ZSDEAYMY"/>
      <point x="87" y="478" name="ABDATWOE"/>
      <point x="158" y="452" name="IPDPFLNX"/>
      <point x="230" y="427" type="curve" smooth="yes" name="FELNGQYN"/>
      <point x="302" y="401" name="KWLVIZWL"/>
      <point x="373" y="377" name="TUJLLNGD"/>
      <point x="412" y="322" type="curve" smooth="yes" name="VJHJZLKX"/>
      <point x="457" y="258" name="MDLAWNKL"/>
      <point x="433" y="222" name="SWWNJWIN"/>
      <point x="355" y="222" type="curve" smooth="yes" name="PJHMPSFO"/>
      <point x="326" y="222" name="GCTGNPNH"/>
      <point x="289" y="227" name="YUGZKYSW"/>
      <point x="250" y="237" type="curve" smooth="yes" name="HLYAXCSJ"/>
    </contour>
    <contour>
      <point x="158" y="585" type="move" name="XYGWLLJZ"/>
      <point x="192" y="616" type="line" name="KMXAMPOA"/>
      <point x="240" y="469" type="line" name="NRFSNWVX"/>
    </contour>
    <contour>
      <point x="184" y="126" type="move" name="SFQYRYIF"/>
      <point x="250" y="237" type="line" name="CJMHXZGC"/>
      <point x="101" y="244" type="line" name="NKUKGJGC"/>
    </contour>
    <contour>
      <point x="101" y="244" type="curve" name="MVBYHZBE"/>
      <point x="184" y="126" type="line" name="MBHTEPCY"/>
      <point x="241" y="114" name="UXMIANLD"/>
      <point x="290" y="106" name="DAUFLZTU"/>
      <point x="333" y="106" type="curve" smooth="yes" name="JSKVWBBK"/>
      <point x="440" y="106" name="RCZAIVVZ"/>
      <point x="481" y="158" name="QHODYGEX"/>
      <point x="411" y="257" type="curve" smooth="yes" name="YRSRLOKI"/>
      <point x="356" y="335" name="DORKE"/>
      <point x="268" y="367" name="DARRL"/>
      <point x="190" y="394" type="curve" smooth="yes" name="KOPRR"/>
      <point x="127" y="415" name="SECOV"/>
      <point x="71" y="433" name="MARBN"/>
      <point x="47" y="468" type="curve" smooth="yes" name="PAZZTPOD"/>
      <point x="28" y="495" name="GCZHOKOJ"/>
      <point x="33" y="516" name="JRVISHMB"/>
      <point x="77" y="516" type="curve" smooth="yes" name="CIYVWSZC"/>
      <point x="119" y="516" name="IBBTRCZS"/>
      <point x="180" y="500" name="XIIXDEMD"/>
      <point x="240" y="469" type="curve" name="EKZMXCVF"/>
      <point x="158" y="585" type="line" name="AQWSYPXP"/>
      <point x="107" y="597" name="OGAMWLBV"/>
      <point x="62" y="604" name="KCPTFDVX"/>
      <point x="24" y="604" type="curve" smooth="yes" name="TADKNXZM"/>
      <point x="-84" y="604" name="OTIANTSU"/>
      <point x="-118" y="550" name="PBNHVKZS"/>
      <point x="-52" y="456" type="curve" smooth="yes" name="DQVQIGVS"/>
      <point x="4" y="377" name="ISACE"/>
      <point x="92" y="345" name="FOFZE"/>
      <point x="169" y="319" type="curve" smooth="yes" name="FIYCA"/>
      <point x="233" y="297" name="CRIED"/>
      <point x="289" y="280" name="JINEK"/>
      <point x="313" y="246" type="curve" smooth="yes" name="KXCYJCUL"/>
      <point x="333" y="217" name="UYVIAXBU"/>
      <point x="326" y="196" name="NFDEZUFD"/>
      <point x="278" y="196" type="curve" smooth="yes" name="KOFIRWQM"/>
      <point x="232" y="196" name="AUESRPQP"/>
      <point x="166" y="211" name="XJUWYXKK"/>
    </contour>
  </outline>
</glyph>
<glyph name="endash" format="2">
  <advance width="393"/>
  <unicode hex="2013"/>
  <outline>
    <contour>
      <point x="349" y="411" type="move" name="MVURHHRW"/>
      <point x="136" y="411" type="line" name="WNAQRIOL"/>
    </contour>
    <contour>
      <point x="73" y="297" type="move" name="UFVBJNST"/>
      <point x="136" y="411" type="line" name="OTPCADVO"/>
      <point x="11" y="385" type="line" name="TMKRXCGA"/>
    </contour>
    <contour>
      <point x="311" y="385" type="move" name="LSEOJCJB"/>
      <point x="349" y="411" type="line" name="VDMDVTLL"/>
      <point x="374" y="297" type="line" name="VAZHSFHT"/>
    </contour>
    <contour>
      <point x="73" y="297" type="line" name="TDEYOHRZ"/>
      <point x="374" y="297" type="line" name="KRNRSCDO"/>
      <point x="311" y="385" type="line" name="LOSMGWSV"/>
      <point x="11" y="385" type="line" name="HUDXPVHC"/>
    </contour>
  </outline>
</glyph>
<glyph name="quoteleft" format="2">
  <advance width="194"/>
  <unicode hex="2018"/>
  <outline>
    <contour>
      <point x="-14" y="604" type="move" smooth="yes" name="JUNWJFMJ"/>
      <point x="-27" y="577" name="WEWTMJJV"/>
      <point x="9" y="548" name="AEXINPXG"/>
      <point x="64" y="512" type="curve" name="AZXRXXIH"/>
    </contour>
    <contour>
      <point x="107" y="398" type="move" name="XJBUXPFQ"/>
      <point x="64" y="512" type="line" name="VWUMAPUP"/>
      <point x="-11" y="398" type="line" name="JRLMZRMB"/>
    </contour>
    <contour>
      <point x="107" y="398" type="curve" name="CVWVYNXN"/>
      <point x="-11" y="398" type="line" name="MVEQNUGB"/>
      <point x="-74" y="476" name="BOOQQJWK"/>
      <point x="-103" y="568" name="IEIBIZAB"/>
      <point x="-14" y="604" type="curve" name="RZOJSMYH"/>
      <point x="5" y="519" name="AVDFDHIB"/>
      <point x="45" y="461" name="LTXGFGVK"/>
    </contour>
  </outline>
</glyph>
<glyph name="quoteright" format="2">
  <advance width="194"/>
  <unicode hex="2019"/>
  <outline>
    <contour>
      <point x="-22" y="391" type="move" smooth="yes" name="JUNWJFMJ"/>
      <point x="21" y="459" name="WEWTMJJV"/>
      <point x="25" y="546" name="AEXINPXG"/>
      <point x="1" y="623" type="curve" name="AZXRXXIH"/>
    </contour>
    <contour>
      <point x="-142" y="596" type="move" name="XJBUXPFQ"/>
      <point x="1" y="623" type="line" name="VWUMAPUP"/>
      <point x="-24" y="596" type="line" name="JRLMZRMB"/>
    </contour>
    <contour>
      <point x="-142" y="596" type="curve" name="CVWVYNXN"/>
      <point x="-24" y="596" type="line" name="MVEQNUGB"/>
      <point x="38" y="518" name="BOOQQJWK"/>
      <point x="68" y="426" name="IEIBIZAB"/>
      <point x="-22" y="391" type="curve" name="RZOJSMYH"/>
      <point x="-40" y="475" name="AVDFDHIB"/>
      <point x="-81" y="534" name="LTXGFGVK"/>
    </contour>
  </outline>
</glyph>
<glyph name="quotedblbase" format="2">
  <advance width="353"/>
  <unicode hex="201E"/>
  <outline>
    <contour>
      <point x="238" y="24" type="move" smooth="yes" name="LHJPAEFD"/>
      <point x="281" y="92" name="EDCYVDPN"/>
      <point x="285" y="179" name="BJUSKHWM"/>
      <point x="260" y="256" type="curve" name="MNKNOFKY"/>
    </contour>
    <contour>
      <point x="117" y="229" type="move" name="CPEDHGBM"/>
      <point x="260" y="256" type="line" name="AOTGPWBQ"/>
      <point x="235" y="229" type="line" name="UDENNTSO"/>
    </contour>
    <contour>
      <point x="397" y="24" type="move" smooth="yes" name="WENIEAVH"/>
      <point x="440" y="92" name="LXUDBMSJ"/>
      <point x="444" y="179" name="LWOXHYFJ"/>
      <point x="419" y="256" type="curve" name="HBHIAPDL"/>
    </contour>
    <contour>
      <point x="276" y="229" type="move" name="UXICUCWG"/>
      <point x="419" y="256" type="line" name="YPLDSTMS"/>
      <point x="394" y="229" type="line" name="RPLGOSNC"/>
    </contour>
    <contour>
      <point x="276" y="229" type="curve" name="BLOON"/>
      <point x="394" y="229" type="line" name="WOGRI"/>
      <point x="457" y="151" name="BURPS"/>
      <point x="486" y="59" name="ZAPID"/>
      <point x="397" y="24" type="curve" name="WIMIM"/>
      <point x="378" y="108" name="DRUGA"/>
      <point x="338" y="167" name="OLIIV"/>
    </contour>
    <contour>
      <point x="117" y="229" type="curve" name="OLLSN"/>
      <point x="235" y="229" type="line" name="LENON"/>
      <point x="298" y="151" name="ORCUT"/>
      <point x="327" y="59" name="JEFCO"/>
      <point x="238" y="24" type="curve" name="CEKAL"/>
      <point x="219" y="108" name="NOTTY"/>
      <point x="178" y="167" name="OZEJI"/>
    </contour>
  </outline>
</glyph>
<glyph name="c" format="2">
  <advance width="432"/>
  <outline>
    <contour>
      <point x="247" y="616" type="move" smooth="yes" name="DPEXBIPW"/>
      <point x="216" y="625" name="EQSYGSUQ"/>
      <point x="181" y="630" name="UEAMWQAD"/>
      <point x="156" y="630" type="curve" smooth="yes" name="KQUUYGGH"/>
      <point x="43" y="630" name="ZZZCHOTG"/>
      <point x="29" y="548" name="YHMSRLBE"/>
      <point x="116" y="426" type="curve" smooth="yes" name="URTIXGAW"/>
      <point x="202" y="304" name="ZKEMGPQX"/>
      <point x="332" y="223" name="MNUUPVSW"/>
      <point x="444" y="223" type="curve" smooth="yes" name="NBNNAADE"/>
      <point x="469" y="223" name="TCCYPWOU"/>
      <point x="498" y="228" name="XOXXAJYZ"/>
      <point x="515" y="237" type="curve" smooth="yes" name="ZRADGHXR"/>
    </contour>
    <contour>
      <point x="215" y="581" type="move" name="ZVSPBBMH"/>
      <point x="247" y="616" type="line" name="PJYICBXU"/>
      <point x="299" y="462" type="line" name="JTRIQKLW"/>
    </contour>
    <contour>
      <point x="449" y="250" type="move" name="IQVNJISR"/>
      <point x="515" y="237" type="line" name="MBLKTCQA"/>
      <point x="533" y="131" type="line" name="LMCNVRTT"/>
    </contour>
    <contour>
      <point x="533" y="131" type="curve" name="TBWVDPPF"/>
      <point x="449" y="250" type="line" name="FCYNOSNY"/>
      <point x="436" y="219" name="EMBXHTCA"/>
      <point x="406" y="198" name="KQQSBZJZ"/>
      <point x="359" y="198" type="curve" smooth="yes" name="MUXQBMUD"/>
      <point x="284" y="198" name="LWMSBIBO"/>
      <point x="188" y="258" name="FEWDNOIV"/>
      <point x="119" y="356" type="curve" smooth="yes" name="ZTOMZSHJ"/>
      <point x="49" y="454" name="YLXGMHNL"/>
      <point x="59" y="514" name="LJOYVVEK"/>
      <point x="135" y="514" type="curve" smooth="yes" name="SHPNPZJQ"/>
      <point x="182" y="514" name="ICHGITSW"/>
      <point x="245" y="491" name="PIOFONDU"/>
      <point x="299" y="462" type="curve" name="HPRWELAB"/>
      <point x="215" y="581" type="line" name="IKLOTKUV"/>
      <point x="170" y="596" name="TDWCLQUY"/>
      <point x="120" y="605" name="BFFDIVHZ"/>
      <point x="77" y="605" type="curve" smooth="yes" name="MECSBSXR"/>
      <point x="-73" y="605" name="FTZOKMWZ"/>
      <point x="-92" y="502" name="TOCPKKOQ"/>
      <point x="12" y="355" type="curve" smooth="yes" name="MXCINSLZ"/>
      <point x="116" y="208" name="MGUEJJEP"/>
      <point x="279" y="107" name="VBZJASOU"/>
      <point x="429" y="107" type="curve" smooth="yes" name="LVPMOYYB"/>
      <point x="472" y="107" name="ZSVZEFRH"/>
      <point x="510" y="116" name="HVFCLTFQ"/>
    </contour>
  </outline>
</glyph>
<glyph name="g" format="2">
  <advance width="474"/>
  <outline>
    <contour>
      <point x="248" y="577" type="move" name="ZVSPBBMH"/>
      <point x="280" y="610" type="line" name="PJYICBXU"/>
      <point x="332" y="458" type="line" name="JTRIQKLW"/>
    </contour>
    <contour>
      <point x="293" y="363" type="move" name="EFSHOVMG"/>
      <point x="440" y="390" type="line" name="ZWRNCKHQ"/>
      <point x="419" y="363" type="line" name="MJVZATKE"/>
    </contour>
    <contour>
      <point x="280" y="610" type="move" smooth="yes" name="NUEXWVON"/>
      <point x="239" y="623" name="ZWXFJNRG"/>
      <point x="196" y="630" name="NVYKQXKG"/>
      <point x="164" y="630" type="curve" smooth="yes" name="METJVKML"/>
      <point x="47" y="630" name="GNXJIUSZ"/>
      <point x="30" y="548" name="MLLZPMHI"/>
      <point x="116" y="425" type="curve" smooth="yes" name="NAATNOMK"/>
      <point x="200" y="307" name="EUIEBEJW"/>
      <point x="333" y="222" name="UXZQUAFU"/>
      <point x="449" y="222" type="curve" smooth="yes" name="ULTRUYDN"/>
      <point x="487" y="222" name="RJTFLYZP"/>
      <point x="519" y="230" name="CONFMRBF"/>
      <point x="544" y="246" type="curve" name="FXBRPKQM"/>
      <point x="492" y="320" name="CUUVEUMC"/>
      <point x="461" y="362" name="WDVJWSHR"/>
      <point x="440" y="390" type="curve" smooth="yes" name="QRCQOBFX"/>
    </contour>
    <contour>
      <point x="425" y="205" type="move" name="BFJNLYWT"/>
      <point x="544" y="246" type="line" name="JBXGVBLG"/>
      <point x="565" y="144" type="line" name="PERFQIHH"/>
    </contour>
    <contour>
      <point x="565" y="144" type="curve" name="EFAVKFHW"/>
      <point x="452" y="303" name="FHEMODTT"/>
      <point x="431" y="338" name="CWXJHZRV"/>
      <point x="419" y="363" type="curve" name="WNMWGGQU"/>
      <point x="293" y="363" type="line" name="VPUEZWDY"/>
      <point x="319" y="341" name="SHUIKTEZ"/>
      <point x="344" y="314" name="CMEWTSPD"/>
      <point x="425" y="205" type="curve" name="RFNKVYLL"/>
      <point x="409" y="199" name="GNNVNGVX"/>
      <point x="390" y="196" name="ZKYTVCIP"/>
      <point x="370" y="196" type="curve" smooth="yes" name="YGEHCPCJ"/>
      <point x="284" y="196" name="NOMUHEDM"/>
      <point x="187" y="259" name="YONGPFQL"/>
      <point x="118" y="357" type="curve" smooth="yes" name="ORCFVXHK"/>
      <point x="49" y="454" name="INSYGZJA"/>
      <point x="59" y="515" name="GSFAYEGO"/>
      <point x="145" y="515" type="curve" smooth="yes" name="LDGXBCIV"/>
      <point x="195" y="515" name="QIIUIUYE"/>
      <point x="260" y="497" name="TVZRJZCQ"/>
      <point x="332" y="458" type="curve" name="OEPYTYPR"/>
      <point x="248" y="577" type="line" name="QHXEEQPD"/>
      <point x="187" y="594" name="ASEGYKBY"/>
      <point x="131" y="605" name="BYATCLCA"/>
      <point x="83" y="605" type="curve" smooth="yes" name="NTHPUHCU"/>
      <point x="-66" y="605" name="FXWVWANU"/>
      <point x="-90" y="500" name="MZBYFCPA"/>
      <point x="14" y="352" type="curve" smooth="yes" name="LOCXCGOT"/>
      <point x="113" y="212" name="NIYFZMOR"/>
      <point x="281" y="105" name="TYFQLQMD"/>
      <point x="428" y="105" type="curve" smooth="yes" name="LOICOUEV"/>
      <point x="484" y="105" name="YLKUTDPC"/>
      <point x="525" y="120" name="QXQZFRZJ"/>
    </contour>
  </outline>
</glyph>
<glyph name="h" format="2">
  <advance width="497"/>
  <outline>
    <contour>
      <point x="6" y="623" type="move" name="JKIZUAWY"/>
      <point x="138" y="437" type="line" name="VVUDKNUD"/>
      <point x="284" y="230" type="line" name="IKYWWOLM"/>
    </contour>
    <contour>
      <point x="283" y="623" type="move" name="XGDMMTLW"/>
      <point x="415" y="437" type="line" name="ZEMYKHZL"/>
      <point x="561" y="230" type="line" name="UYOPCAZO"/>
    </contour>
    <contour>
      <point x="415" y="437" type="move" name="DTCUJTOO"/>
      <point x="138" y="437" type="line" name="XIGZJSSE"/>
    </contour>
    <contour>
      <point x="106" y="411" type="move" name="BHAZYCJU"/>
      <point x="138" y="437" type="line" name="LKPQIGAZ"/>
      <point x="170" y="321" type="line" name="CGSXIVVA"/>
    </contour>
    <contour>
      <point x="335" y="116" type="move" name="JRLMZRMB"/>
      <point x="284" y="230" type="line" name="VWUMAPUP"/>
      <point x="195" y="116" type="line" name="XJBUXPFQ"/>
    </contour>
    <contour>
      <point x="-145" y="596" type="move" name="ECUUNSVW"/>
      <point x="6" y="623" type="line" name="WZGBHWZC"/>
      <point x="-5" y="596" type="line" name="SFLOLYUF"/>
    </contour>
    <contour>
      <point x="346" y="321" type="move" name="YPKTMTLM"/>
      <point x="415" y="437" type="line" name="TMPWPBHT"/>
      <point x="283" y="411" type="line" name="CCFQGQHD"/>
    </contour>
    <contour>
      <point x="612" y="116" type="move" name="PXIBMFLN"/>
      <point x="561" y="230" type="line" name="YWMEWBPF"/>
      <point x="472" y="116" type="line" name="RZJHOCJT"/>
    </contour>
    <contour>
      <point x="132" y="596" type="move" name="NUKKCNGE"/>
      <point x="283" y="623" type="line" name="POROMZGU"/>
      <point x="272" y="596" type="line" name="FQNYHCGX"/>
    </contour>
    <contour>
      <point x="195" y="116" type="curve" name="EZSBJBYE"/>
      <point x="335" y="116" type="line" name="FBLWJBVS"/>
      <point x="303" y="142" name="XMXJMMRB"/>
      <point x="273" y="176" name="HPRBZYUP"/>
      <point x="170" y="321" type="curve" name="XUNFAXJR"/>
      <point x="346" y="321" type="line" name="NDHHPJUQ"/>
      <point x="448" y="176" name="XLZDLBKJ"/>
      <point x="467" y="142" name="KYOOEKOC"/>
      <point x="472" y="116" type="curve" name="MXEKSMBH"/>
      <point x="612" y="116" type="line" name="OMXFLDYS"/>
      <point x="578" y="144" name="ZHUSTKVK"/>
      <point x="545" y="183" name="BYKBSQXL"/>
      <point x="418" y="362" type="curve" smooth="yes" name="FAQSGATY"/>
      <point x="298" y="532" name="BGGGMSMS"/>
      <point x="277" y="569" name="HPOKVHHF"/>
      <point x="272" y="596" type="curve" name="FHGITFPS"/>
      <point x="132" y="596" type="line" name="WFSVCECA"/>
      <point x="163" y="572" name="EBALIVSZ"/>
      <point x="190" y="540" name="XUZDRFCV"/>
      <point x="283" y="411" type="curve" name="FOVBJTJB"/>
      <point x="106" y="411" type="line" name="IEDVCRTN"/>
      <point x="17" y="540" name="VVYBURJW"/>
      <point x="-1" y="572" name="ZQCTETGT"/>
      <point x="-5" y="596" type="curve" name="PEWHBVGI"/>
      <point x="-145" y="596" type="line" name="PTZWGXEY"/>
      <point x="-111" y="569" name="CAERPLQG"/>
      <point x="-80" y="532" name="WWREGVBR"/>
      <point x="40" y="362" type="curve" smooth="yes" name="MJVBJLFL"/>
      <point x="167" y="183" name="YLEKRAUL"/>
      <point x="189" y="144" name="YXOBABRJ"/>
    </contour>
  </outline>
</glyph>
<glyph name="igrave" format="2">
  <advance width="225"/>
  <outline>
    <contour>
      <point x="9" y="623" type="move" name="JKIZUAWY"/>
      <point x="287" y="230" type="line" name="IKYWWOLM"/>
    </contour>
    <contour>
      <point x="337" y="116" type="move" name="JRLMZRMB"/>
      <point x="287" y="230" type="line" name="VWUMAPUP"/>
      <point x="198" y="116" type="line" name="XJBUXPFQ"/>
    </contour>
    <contour>
      <point x="-142" y="596" type="move" name="ECUUNSVW"/>
      <point x="9" y="623" type="line" name="WZGBHWZC"/>
      <point x="-3" y="596" type="line" name="SFLOLYUF"/>
    </contour>
    <contour>
      <point x="198" y="116" type="curve" name="MPEQAMMH"/>
      <point x="337" y="116" type="line" name="AQXHJDIP"/>
      <point x="303" y="144" name="GMHOCUQV"/>
      <point x="271" y="183" name="DYYCJHJS"/>
      <point x="144" y="362" type="curve" smooth="yes" name="SKRQHPHT"/>
      <point x="24" y="532" name="FHMLNKRW"/>
      <point x="3" y="569" name="ZAUWLJDQ"/>
      <point x="-3" y="596" type="curve" name="HXLEOYGE"/>
      <point x="-142" y="596" type="line" name="ZMCOAEXK"/>
      <point x="-109" y="569" name="CJSLTGXE"/>
      <point x="-78" y="532" name="IMBJAEUZ"/>
      <point x="42" y="362" type="curve" smooth="yes" name="ASLTJWFP"/>
      <point x="169" y="183" name="EQAGAFRV"/>
      <point x="192" y="144" name="YORXKDLF"/>
    </contour>
    <contour>
      <point x="-44" y="799" type="move" name="JMGOEJYY"/>
      <point x="-132" y="864" type="line" name="BZWZQKAG"/>
    </contour>
    <contour>
      <point x="-287" y="830" type="move" name="CSSRQEYN"/>
      <point x="-132" y="864" type="line" name="OVHLHUYL"/>
      <point x="-174" y="830" type="line" name="CNWFLDXU"/>
    </contour>
    <contour>
      <point x="1" y="692" type="move" name="JEGYSVFE"/>
      <point x="-44" y="799" type="line" name="YMITEXIS"/>
      <point x="-94" y="692" type="line" name="FTPSNQRM"/>
    </contour>
    <contour>
      <point x="1" y="692" type="line" name="LHDKKCYJ"/>
      <point x="-94" y="692" type="line" name="KCZJVOZD"/>
      <point x="-292" y="837" type="line" name="NRQZOQGI"/>
      <point x="-179" y="837" type="line" name="NMCUMUMO"/>
    </contour>
  </outline>
</glyph>
<glyph name="l" format="2">
  <advance width="356"/>
  <outline>
    <contour>
      <point x="282" y="233" type="move" name="ZWRNCKHQ"/>
      <point x="195" y="116" type="line" name="EFSHOVMG"/>
    </contour>
    <contour>
      <point x="252" y="209" type="move" name="MJVZATKE"/>
      <point x="282" y="233" type="line" name="NIRFAUYK"/>
    </contour>
    <contour>
      <point x="-145" y="596" type="move" name="GRZQCAGM"/>
      <point x="6" y="623" type="line" name="LXMSTDXV"/>
      <point x="-6" y="596" type="line" name="MENRSPSU"/>
    </contour>
    <contour>
      <point x="479" y="116" type="move" name="RDJQSJBO"/>
      <point x="449" y="239" type="line" name="DGWJLFZR"/>
      <point x="408" y="237" type="line" name="NFCLXEKZ"/>
    </contour>
    <contour>
      <point x="6" y="623" type="move" name="DARGRHBN"/>
      <point x="282" y="233" type="line" name="BZBSRBAL"/>
      <point x="449" y="239" type="line" name="NYOGKXYE"/>
    </contour>
    <contour>
      <point x="195" y="116" type="curve" name="JUEEEIDE"/>
      <point x="479" y="116" type="line" name="STKOFXNW"/>
      <point x="408" y="237" type="line" name="RIJXEUVQ"/>
      <point x="397" y="217" name="ZDVAKKNR"/>
      <point x="368" y="208" name="DBJLNACQ"/>
      <point x="252" y="209" type="curve" name="KFBABXWY"/>
      <point x="226" y="244" name="LVLCLAFJ"/>
      <point x="190" y="292" name="JQUGERKR"/>
      <point x="141" y="362" type="curve" smooth="yes" name="LMMJMORA"/>
      <point x="21" y="532" name="VCFCZWNV"/>
      <point x="0" y="569" name="HHMETMEC"/>
      <point x="-6" y="596" type="curve" name="QWSMCLHA"/>
      <point x="-145" y="596" type="line" name="BPYQGOVX"/>
      <point x="-111" y="569" name="ITXLMLSW"/>
      <point x="-80" y="532" name="ONGZXXDY"/>
      <point x="40" y="362" type="curve" smooth="yes" name="DVLSJWAA"/>
      <point x="167" y="183" name="HUCHSCBQ"/>
      <point x="189" y="144" name="FTCXUFPC"/>
    </contour>
  </outline>
</glyph>
<glyph name="n" format="2">
  <advance width="495"/>
  <outline>
    <contour>
      <point x="328" y="116" type="move" name="VSXLDNKZ"/>
      <point x="280" y="230" type="line" name="SUKSFYIY"/>
      <point x="196" y="116" type="line" name="HDGFSUZS"/>
    </contour>
    <contour>
      <point x="137" y="596" type="move" name="ZLEMENNY"/>
      <point x="284" y="623" type="line" name="OXQATKAG"/>
      <point x="269" y="596" type="line" name="BUSIROAB"/>
    </contour>
    <contour>
      <point x="-144" y="596" type="move" name="JYHUHSXA"/>
      <point x="-3" y="630" type="line" name="OHDQCNUI"/>
      <point x="-34" y="596" type="line" name="YQCUMHNN"/>
    </contour>
    <contour>
      <point x="602" y="116" type="move" name="AXQSEQZU"/>
      <point x="564" y="227" type="line" name="FIQCBHOY"/>
      <point x="506" y="116" type="line" name="ZJLCBJAV"/>
    </contour>
    <contour>
      <point x="280" y="230" type="move" name="VNZQNFRY"/>
      <point x="-3" y="630" type="line" name="TAUYIJYN"/>
      <point x="44" y="600" name="HGQQMFIK"/>
      <point x="98" y="563" name="MLGHPHNB"/>
      <point x="187" y="499" type="curve" smooth="yes" name="EXISWEPF"/>
      <point x="410" y="336" type="line" smooth="yes" name="BYEWLAEP"/>
      <point x="487" y="280" name="TZTMTWLM"/>
      <point x="529" y="251" name="MOZDOBOR"/>
      <point x="564" y="227" type="curve" name="ORWYJUUF"/>
      <point x="284" y="623" type="line" name="XZYVBHUK"/>
    </contour>
    <contour>
      <point x="357" y="313" type="move" name="UJWXPRAI"/>
      <point x="564" y="227" type="line" name="ZMFESRGD"/>
    </contour>
    <contour>
      <point x="-3" y="630" type="move" name="FBKNOFAU"/>
      <point x="102" y="408" type="line" name="EQSWRIWZ"/>
    </contour>
    <contour>
      <point x="602" y="116" type="line" name="ZLUDYLTY"/>
      <point x="569" y="151" name="USTFICUQ"/>
      <point x="543" y="183" name="MHRQZPAA"/>
      <point x="416" y="362" type="curve" smooth="yes" name="JSFOKGTU"/>
      <point x="296" y="532" name="VKLRKZMJ"/>
      <point x="275" y="569" name="PJOPDMTE"/>
      <point x="269" y="596" type="curve" name="EOELEPPS"/>
      <point x="137" y="596" type="line" name="WKKIOTQU"/>
      <point x="171" y="569" name="DUHIDNGI"/>
      <point x="202" y="532" name="UHNOFJBC"/>
      <point x="322" y="362" type="curve" smooth="yes" name="UKMNJIHH"/>
      <point x="357" y="313" type="line" name="OZYBTAKC"/>
      <point x="-34" y="596" type="line" name="UJXJEIQN"/>
      <point x="-144" y="596" type="line" name="VMNMSEEU"/>
      <point x="-111" y="569" name="AOUJGXZL"/>
      <point x="-80" y="532" name="WFTYAZZF"/>
      <point x="40" y="362" type="curve" smooth="yes" name="EJAXAOXJ"/>
      <point x="167" y="183" name="KARRCXBH"/>
      <point x="190" y="144" name="AXRTSNMV"/>
      <point x="196" y="116" type="curve" name="HADCZJFM"/>
      <point x="328" y="116" type="line" name="CRVDYHHO"/>
      <point x="294" y="144" name="UKVTITTT"/>
      <point x="261" y="183" name="QXXJLVDZ"/>
      <point x="134" y="362" type="curve" smooth="yes" name="DHDXVOLR"/>
      <point x="102" y="408" type="line" name="JKILFKXZ"/>
      <point x="506" y="116" type="line" name="SJKKLZPP"/>
    </contour>
  </outline>
</glyph>
<glyph name="ntilde" format="2">
  <advance width="495"/>
  <outline>
    <contour>
      <point x="328" y="116" type="move" name="VSXLDNKZ"/>
      <point x="280" y="230" type="line" name="SUKSFYIY"/>
      <point x="196" y="116" type="line" name="HDGFSUZS"/>
    </contour>
    <contour>
      <point x="137" y="596" type="move" name="ZLEMENNY"/>
      <point x="284" y="623" type="line" name="OXQATKAG"/>
      <point x="269" y="596" type="line" name="BUSIROAB"/>
    </contour>
    <contour>
      <point x="-144" y="596" type="move" name="JYHUHSXA"/>
      <point x="-3" y="630" type="line" name="OHDQCNUI"/>
      <point x="-34" y="596" type="line" name="YQCUMHNN"/>
    </contour>
    <contour>
      <point x="602" y="116" type="move" name="AXQSEQZU"/>
      <point x="564" y="227" type="line" name="FIQCBHOY"/>
      <point x="506" y="116" type="line" name="ZJLCBJAV"/>
    </contour>
    <contour>
      <point x="280" y="230" type="move" name="VNZQNFRY"/>
      <point x="-3" y="630" type="line" name="TAUYIJYN"/>
      <point x="44" y="600" name="HGQQMFIK"/>
      <point x="98" y="563" name="MLGHPHNB"/>
      <point x="187" y="499" type="curve" smooth="yes" name="EXISWEPF"/>
      <point x="410" y="336" type="line" smooth="yes" name="BYEWLAEP"/>
      <point x="487" y="280" name="TZTMTWLM"/>
      <point x="529" y="251" name="MOZDOBOR"/>
      <point x="564" y="227" type="curve" name="ORWYJUUF"/>
      <point x="284" y="623" type="line" name="XZYVBHUK"/>
    </contour>
    <contour>
      <point x="357" y="313" type="move" name="UJWXPRAI"/>
      <point x="564" y="227" type="line" name="ZMFESRGD"/>
    </contour>
    <contour>
      <point x="-3" y="630" type="move" name="FBKNOFAU"/>
      <point x="102" y="408" type="line" name="EQSWRIWZ"/>
    </contour>
    <contour>
      <point x="602" y="116" type="line" name="ZLUDYLTY"/>
      <point x="569" y="151" name="USTFICUQ"/>
      <point x="543" y="183" name="MHRQZPAA"/>
      <point x="416" y="362" type="curve" smooth="yes" name="JSFOKGTU"/>
      <point x="296" y="532" name="VKLRKZMJ"/>
      <point x="275" y="569" name="PJOPDMTE"/>
      <point x="269" y="596" type="curve" name="EOELEPPS"/>
      <point x="137" y="596" type="line" name="WKKIOTQU"/>
      <point x="171" y="569" name="DUHIDNGI"/>
      <point x="202" y="532" name="UHNOFJBC"/>
      <point x="322" y="362" type="curve" smooth="yes" name="UKMNJIHH"/>
      <point x="357" y="313" type="line" name="OZYBTAKC"/>
      <point x="-34" y="596" type="line" name="UJXJEIQN"/>
      <point x="-144" y="596" type="line" name="VMNMSEEU"/>
      <point x="-111" y="569" name="AOUJGXZL"/>
      <point x="-80" y="532" name="WFTYAZZF"/>
      <point x="40" y="362" type="curve" smooth="yes" name="EJAXAOXJ"/>
      <point x="167" y="183" name="KARRCXBH"/>
      <point x="190" y="144" name="AXRTSNMV"/>
      <point x="196" y="116" type="curve" name="HADCZJFM"/>
      <point x="328" y="116" type="line" name="CRVDYHHO"/>
      <point x="294" y="144" name="UKVTITTT"/>
      <point x="261" y="183" name="QXXJLVDZ"/>
      <point x="134" y="362" type="curve" smooth="yes" name="DHDXVOLR"/>
      <point x="102" y="408" type="line" name="JKILFKXZ"/>
      <point x="506" y="116" type="line" name="SJKKLZPP"/>
    </contour>
    <contour>
      <point x="50" y="687" type="move" name="QCPOLWYD"/>
      <point x="43" y="795" type="line" name="FJNMUWTQ"/>
      <point x="-10" y="687" type="line" name="GPKWJZET"/>
    </contour>
    <contour>
      <point x="119" y="826" type="move" name="VJIZZDNK"/>
      <point x="226" y="860" type="line" name="CTDXBEAF"/>
      <point x="179" y="826" type="line" name="DVRFTJRK"/>
    </contour>
    <contour>
      <point x="226" y="860" type="move" smooth="yes" name="RCVBIGFE"/>
      <point x="254" y="816" name="WKNFQWDQ"/>
      <point x="245" y="797" name="OGEMSRJD"/>
      <point x="214" y="797" type="curve" smooth="yes" name="CEMUNGDD"/>
      <point x="170" y="797" name="KWVGBZNF"/>
      <point x="102" y="854" name="SGAMFANH"/>
      <point x="57" y="854" type="curve" smooth="yes" name="HJXDWVYY"/>
      <point x="27" y="854" name="SMNHZVNV"/>
      <point x="19" y="836" name="YYWYXTAP"/>
      <point x="43" y="795" type="curve" smooth="yes" name="QSBBYBJG"/>
    </contour>
    <contour>
      <point x="119" y="826" type="line" name="ERNST"/>
      <point x="148" y="784" name="HOGIS"/>
      <point x="148" y="768" name="WUKUS"/>
      <point x="131" y="768" type="curve" smooth="yes" name="EMISE"/>
      <point x="99" y="768" name="CFDVD"/>
      <point x="28" y="829" name="GRIDE"/>
      <point x="-29" y="829" type="curve" smooth="yes" name="PSXRG"/>
      <point x="-88" y="829" name="IBDOW"/>
      <point x="-93" y="786" name="BURNZ"/>
      <point x="-10" y="687" type="curve" name="LENCK"/>
      <point x="50" y="687" type="line" name="LUBCA"/>
      <point x="24" y="726" name="IDLUY"/>
      <point x="26" y="738" name="KL18I"/>
      <point x="43" y="738" type="curve" smooth="yes" name="FUMED"/>
      <point x="75" y="738" name="LETCA"/>
      <point x="142" y="685" name="UPICE"/>
      <point x="197" y="685" type="curve" smooth="yes" name="ZOLLA"/>
      <point x="257" y="685" name="JESGA"/>
      <point x="262" y="728" name="WIGIH"/>
      <point x="179" y="826" type="curve" name="HOKIB"/>
    </contour>
  </outline>
</glyph>
<glyph name="oe" format="2">
  <advance width="657"/>
  <outline>
    <contour>
      <point x="572" y="434" type="move" name="GRLQYXQK"/>
      <point x="409" y="434" type="line" name="GHHEYZBI"/>
    </contour>
    <contour>
      <point x="420" y="596" type="move" name="IIYOJRYX"/>
      <point x="461" y="618" type="line" name="BUWWFJIJ"/>
      <point x="498" y="486" type="line" name="DMOCMXSX"/>
    </contour>
    <contour>
      <point x="690" y="233" type="move" name="NFCLXEKZ"/>
      <point x="731" y="235" type="line" name="DGWJLFZR"/>
      <point x="759" y="116" type="line" name="RDJQSJBO"/>
    </contour>
    <contour>
      <point x="525" y="421" type="move" name="UBWSCXEJ"/>
      <point x="572" y="434" type="line" name="OGPDTMUS"/>
      <point x="607" y="306" type="line" name="JMWBMAFS"/>
    </contour>
    <contour>
      <point x="379" y="406" type="move" name="HAWFMGNR"/>
      <point x="409" y="434" type="line" name="ROFWTZTV"/>
      <point x="439" y="321" type="line" name="GOKVVXDN"/>
    </contour>
    <contour>
      <point x="731" y="235" type="move" smooth="yes" name="UJZLLQZS"/>
      <point x="683" y="231" name="EOKOLEIF"/>
      <point x="603" y="230" name="YNYLDGDV"/>
      <point x="553" y="230" type="curve" smooth="yes" name="WKVSVQUV"/>
      <point x="446" y="230" type="line" smooth="yes" name="VAASNHYO"/>
      <point x="332" y="230" name="TNRFHSZN"/>
      <point x="199" y="307" name="ZWJKCABV"/>
      <point x="115" y="426" type="curve" smooth="yes" name="VGDCTNWC"/>
      <point x="31" y="546" name="ALDKOYCL"/>
      <point x="54" y="623" name="XXAOFSRB"/>
      <point x="168" y="623" type="curve" smooth="yes" name="KIJSYAEP"/>
      <point x="275" y="623" type="line" smooth="yes" name="AQFNPWKD"/>
      <point x="324" y="623" name="WKFZOTBZ"/>
      <point x="408" y="622" name="BLDZFCPU"/>
      <point x="461" y="618" type="curve" smooth="yes" name="MLKVJVRM"/>
    </contour>
    <contour>
      <point x="275" y="623" type="move" name="HIMEGYYX"/>
      <point x="553" y="230" type="line" name="VNZLALUE"/>
    </contour>
    <contour>
      <point x="203" y="508" type="move" name="CEADBRGW"/>
      <point x="275" y="623" type="line" name="XDPAMDLQ"/>
      <point x="310" y="508" type="line" name="RMECZRHS"/>
    </contour>
    <contour>
      <point x="525" y="204" type="move" name="RHDCZJZO"/>
      <point x="553" y="230" type="line" name="LETDADSP"/>
      <point x="418" y="204" type="line" name="XPRXIAJM"/>
    </contour>
    <contour>
      <point x="368" y="204" type="line" smooth="yes" name="DUEEDHVO"/>
      <point x="281" y="204" name="JTWLSGVD"/>
      <point x="184" y="263" name="DRCJJRFT"/>
      <point x="119" y="355" type="curve" smooth="yes" name="KYFGISKO"/>
      <point x="54" y="448" name="RBSFSIDL"/>
      <point x="66" y="508" name="AOHADNBK"/>
      <point x="153" y="508" type="curve" smooth="yes" name="AWNKGDGL"/>
      <point x="203" y="508" type="line" name="PVMZDKHD"/>
      <point x="230" y="473" name="NJJJFBKA"/>
      <point x="266" y="423" name="FUCHONZC"/>
      <point x="318" y="350" type="curve" smooth="yes" name="PCMUEKKM"/>
      <point x="365" y="283" name="QPLXJIOG"/>
      <point x="396" y="237" name="EBBOSNQY"/>
      <point x="418" y="204" type="curve" name="XHGLIXON"/>
    </contour>
    <contour>
      <point x="420" y="596" type="line" name="ZCDNYPIH"/>
      <point x="498" y="486" type="line" name="GRNGKCAN"/>
      <point x="466" y="498" name="VRKLHYTS"/>
      <point x="430" y="510" name="OOBSMMOC"/>
      <point x="310" y="508" type="curve" name="SBMVYBLS"/>
      <point x="326" y="483" name="XNAJDZJU"/>
      <point x="349" y="449" name="AMSCNIRF"/>
      <point x="379" y="406" type="curve" name="KWKEJXSA"/>
      <point x="492" y="406" name="AIIEHILG"/>
      <point x="512" y="410" name="NKITVGJH"/>
      <point x="525" y="421" type="curve" name="CPORPORC"/>
      <point x="607" y="306" type="line" name="OVQDCCFR"/>
      <point x="578" y="316" name="OBVYYJID"/>
      <point x="553" y="320" name="CNAHUEUJ"/>
      <point x="439" y="321" type="curve" name="IUOXCDAK"/>
      <point x="476" y="270" name="KGNRSMJZ"/>
      <point x="503" y="232" name="BCKLZOHI"/>
      <point x="525" y="204" type="curve" name="DYJTJDFA"/>
      <point x="652" y="202" name="FYUYAVEQ"/>
      <point x="679" y="213" name="XHEORQFI"/>
      <point x="690" y="233" type="curve" name="PJQIRWDG"/>
      <point x="759" y="116" type="line" name="MNOEFXSV"/>
      <point x="424" y="116" type="line" smooth="yes" name="SNIGDFOW"/>
      <point x="284" y="116" name="IMERWOKO"/>
      <point x="115" y="210" name="LFJSZBTA"/>
      <point x="12" y="355" type="curve" smooth="yes" name="KHMNPYCV"/>
      <point x="-92" y="502" name="TMZCDOYW"/>
      <point x="-56" y="596" name="HUYDIUXZ"/>
      <point x="84" y="596" type="curve" smooth="yes" name="LQZAENEK"/>
    </contour>
  </outline>
</glyph>
<glyph name="otilde" format="2">
  <advance width="524"/>
  <outline>
    <contour>
      <point x="441" y="223" type="curve" smooth="yes" name="TGYHFSCK"/>
      <point x="334" y="223" name="ONKJSEFG"/>
      <point x="201" y="305" name="UVCWUNGU"/>
      <point x="115" y="427" type="curve" smooth="yes" name="WVMTCVTA"/>
      <point x="28" y="550" name="VZIGQVHF"/>
      <point x="46" y="630" name="BHLIENHV"/>
      <point x="153" y="630" type="curve" smooth="yes" name="BXQKAXJF"/>
      <point x="260" y="630" name="FUEAXBFE"/>
      <point x="392" y="549" name="RCIKBTHC"/>
      <point x="478" y="427" type="curve" smooth="yes" name="XEUAKIWH"/>
      <point x="565" y="305" name="OSSWTQDK"/>
      <point x="548" y="223" name="RFBMARMK"/>
    </contour>
    <contour>
      <point x="360" y="197" type="curve" smooth="yes" name="WDRRLXVB"/>
      <point x="283" y="197" name="LKEIMHIZ"/>
      <point x="189" y="258" name="BETJRRVN"/>
      <point x="119" y="357" type="curve" smooth="yes" name="WLOMGHSC"/>
      <point x="49" y="456" name="JMJBCSJP"/>
      <point x="58" y="515" name="HJAMZTQM"/>
      <point x="135" y="515" type="curve" smooth="yes" name="TYRXXEHL"/>
      <point x="211" y="515" name="BXNRJLOW"/>
      <point x="305" y="455" name="MIIDXIMU"/>
      <point x="374" y="357" type="curve" smooth="yes" name="CIPYBHOU"/>
      <point x="444" y="258" name="POUOYBZE"/>
      <point x="436" y="197" name="VRGVHAYM"/>
    </contour>
    <contour>
      <point x="423" y="107" type="curve" smooth="yes" name="HEPZTBDT"/>
      <point x="285" y="107" name="WIVLEFTE"/>
      <point x="114" y="211" name="YFNPHWRI"/>
      <point x="11" y="357" type="curve" smooth="yes" name="ESDAEYPZ"/>
      <point x="-91" y="502" name="XQCEYJKO"/>
      <point x="-67" y="605" name="VRANIYZQ"/>
      <point x="71" y="605" type="curve" smooth="yes" name="MGEEOORV"/>
      <point x="208" y="605" name="OCGTBTTX"/>
      <point x="379" y="502" name="FUXAXLCF"/>
      <point x="482" y="357" type="curve" smooth="yes" name="EXDAZFWJ"/>
      <point x="585" y="211" name="IWQOXAUI"/>
      <point x="560" y="107" name="YYWCBIAH"/>
    </contour>
    <contour>
      <point x="70" y="697" type="move" name="QCPOLWYD"/>
      <point x="63" y="805" type="line" name="FJNMUWTQ"/>
      <point x="10" y="697" type="line" name="GPKWJZET"/>
    </contour>
    <contour>
      <point x="139" y="836" type="move" name="VJIZZDNK"/>
      <point x="246" y="870" type="line" name="CTDXBEAF"/>
      <point x="199" y="836" type="line" name="DVRFTJRK"/>
    </contour>
    <contour>
      <point x="246" y="870" type="move" smooth="yes" name="RCVBIGFE"/>
      <point x="274" y="826" name="WKNFQWDQ"/>
      <point x="265" y="807" name="OGEMSRJD"/>
      <point x="234" y="807" type="curve" smooth="yes" name="CEMUNGDD"/>
      <point x="190" y="807" name="KWVGBZNF"/>
      <point x="122" y="864" name="SGAMFANH"/>
      <point x="77" y="864" type="curve" smooth="yes" name="HJXDWVYY"/>
      <point x="47" y="864" name="SMNHZVNV"/>
      <point x="39" y="846" name="YYWYXTAP"/>
      <point x="63" y="805" type="curve" smooth="yes" name="QSBBYBJG"/>
    </contour>
    <contour>
      <point x="139" y="836" type="line" name="ERNST"/>
      <point x="168" y="794" name="HOGIS"/>
      <point x="168" y="778" name="WUKUS"/>
      <point x="151" y="778" type="curve" smooth="yes" name="EMISE"/>
      <point x="119" y="778" name="CFDVD"/>
      <point x="48" y="839" name="GRIDE"/>
      <point x="-9" y="839" type="curve" smooth="yes" name="PSXRG"/>
      <point x="-68" y="839" name="IBDOW"/>
      <point x="-73" y="796" name="BURNZ"/>
      <point x="10" y="697" type="curve" name="LENCK"/>
      <point x="70" y="697" type="line" name="LUBCA"/>
      <point x="44" y="736" name="IDLUY"/>
      <point x="46" y="748" name="KL18I"/>
      <point x="63" y="748" type="curve" smooth="yes" name="FUMED"/>
      <point x="95" y="748" name="LETCA"/>
      <point x="162" y="695" name="UPICE"/>
      <point x="217" y="695" type="curve" smooth="yes" name="ZOLLA"/>
      <point x="277" y="695" name="JESGA"/>
      <point x="282" y="738" name="WIGIH"/>
      <point x="199" y="836" type="curve" name="HOKIB"/>
    </contour>
  </outline>
</glyph>
<glyph name="udieresis" format="2">
  <advance width="484"/>
  <outline>
    <contour>
      <point x="277" y="623" type="move" name="XNTOXYFL"/>
      <point x="469" y="352" type="line" smooth="yes" name="UIKHKYFD"/>
      <point x="526" y="271" name="CRVPPERY"/>
      <point x="506" y="220" name="IEMLKHRX"/>
      <point x="423" y="220" type="curve" smooth="yes" name="SCXXWPPQ"/>
      <point x="340" y="220" name="FXVYQPWZ"/>
      <point x="248" y="271" name="OYJYTHHD"/>
      <point x="191" y="352" type="curve" smooth="yes" name="NLXIXJZD"/>
      <point x="-1" y="623" type="line" name="ZFSGOLGC"/>
    </contour>
    <contour>
      <point x="-152" y="596" type="move" name="ECUUNSVW"/>
      <point x="-1" y="623" type="line" name="WZGBHWZC"/>
      <point x="-12" y="596" type="line" name="SFLOLYUF"/>
    </contour>
    <contour>
      <point x="126" y="596" type="move" name="NUKKCNGE"/>
      <point x="277" y="623" type="line" name="POROMZGU"/>
      <point x="266" y="596" type="line" name="FQNYHCGX"/>
    </contour>
    <contour>
      <point x="405" y="104" type="curve" smooth="yes" name="NBKAZKIF"/>
      <point x="294" y="104" name="MRROQZHA"/>
      <point x="170" y="168" name="ZKFHVSTM"/>
      <point x="96" y="273" type="curve" smooth="yes" name="JCZAGKBP"/>
      <point x="33" y="362" type="line" smooth="yes" name="FNHOUCZH"/>
      <point x="-87" y="532" name="JFYUOPXS"/>
      <point x="-118" y="569" name="WYKFIZYS"/>
      <point x="-152" y="596" type="curve" name="OJWUTBGH"/>
      <point x="-12" y="596" type="line" name="MHINACOT"/>
      <point x="-7" y="569" name="DYJNSSMA"/>
      <point x="14" y="532" name="VPOKTLLO"/>
      <point x="134" y="362" type="curve" smooth="yes" name="XKYBJQFM"/>
      <point x="187" y="288" type="line" smooth="yes" name="ZRBHOVKL"/>
      <point x="226" y="232" name="RIESGZAD"/>
      <point x="286" y="196" name="GKPCELCP"/>
      <point x="341" y="196" type="curve" smooth="yes" name="EGPWFZEB"/>
      <point x="395" y="196" name="DLEJQQMR"/>
      <point x="403" y="232" name="BOTQIWYL"/>
      <point x="363" y="288" type="curve" smooth="yes" name="JCKMQIYM"/>
      <point x="311" y="362" type="line" smooth="yes" name="NJYKDZTE"/>
      <point x="191" y="532" name="JCVRSMLZ"/>
      <point x="160" y="569" name="HPYDCBAQ"/>
      <point x="126" y="596" type="curve" name="TYALALLU"/>
      <point x="266" y="596" type="line" name="KFLRYVBT"/>
      <point x="271" y="569" name="YANYVTJT"/>
      <point x="292" y="532" name="JSANITPQ"/>
      <point x="412" y="362" type="curve" smooth="yes" name="AHEURRUA"/>
      <point x="475" y="273" type="line" smooth="yes" name="LEAWLKJK"/>
      <point x="550" y="168" name="UBQYLRWC"/>
      <point x="516" y="104" name="TPWBAEKE"/>
    </contour>
    <contour>
      <point x="-107" y="815" type="move" name="SCACCEQM"/>
      <point x="39" y="829" type="line" name="TDTKBCUN"/>
      <point x="87" y="701" type="line" name="UVYUFIQK"/>
    </contour>
    <contour>
      <point x="-27" y="701" type="move" name="TCUOTQUC"/>
      <point x="39" y="829" type="line" name="ZUFETZQH"/>
      <point x="7" y="815" type="line" name="RTKVXTOI"/>
    </contour>
    <contour>
      <point x="62" y="815" type="move" name="JYBPDXXE"/>
      <point x="209" y="829" type="line" name="VTWHYFXM"/>
      <point x="257" y="701" type="line" name="GBLBBSLE"/>
    </contour>
    <contour>
      <point x="143" y="701" type="move" name="QFFCBBPK"/>
      <point x="209" y="829" type="line" name="JLGEMYJZ"/>
      <point x="176" y="815" type="line" name="WYCDUJYS"/>
    </contour>
    <contour>
      <point x="-27" y="701" type="line" name="CCJYUUHL"/>
      <point x="87" y="701" type="line" name="BKYIKFUA"/>
      <point x="7" y="815" type="line" name="LRBMGRUX"/>
      <point x="-107" y="815" type="line" name="IWYMIXUE"/>
    </contour>
    <contour>
      <point x="143" y="701" type="line" name="WCASIEIJ"/>
      <point x="257" y="701" type="line" name="YDUVRJEO"/>
      <point x="176" y="815" type="line" name="JWVZPJOU"/>
      <point x="62" y="815" type="line" name="WJOMFSRC"/>
    </contour>
  </outline>
</glyph>
<glyph name="yacute" format="2">
  <advance width="441"/>
  <outline>
    <contour>
      <point x="-15" y="623" type="move" smooth="yes" name="DXMCHEWY"/>
      <point x="31" y="583" name="FYVGSDMC"/>
      <point x="112" y="517" name="KXLOUUCH"/>
      <point x="294" y="373" type="curve" name="ICNUKJOU"/>
      <point x="272" y="517" name="TLZFQXAR"/>
      <point x="262" y="584" name="ZPOETEPL"/>
      <point x="251" y="623" type="curve" smooth="yes" name="YGDCTHHR"/>
    </contour>
    <contour>
      <point x="177" y="396" type="move" name="UAHBNIEJ"/>
      <point x="294" y="373" type="line" name="VUDQKBXB"/>
      <point x="395" y="230" type="line" name="XHAYGGJW"/>
    </contour>
    <contour>
      <point x="446" y="116" type="move" name="JRLMZRMB"/>
      <point x="395" y="230" type="line" name="VWUMAPUP"/>
      <point x="307" y="116" type="line" name="XJBUXPFQ"/>
    </contour>
    <contour>
      <point x="-188" y="596" type="move" name="ECUUNSVW"/>
      <point x="-15" y="623" type="line" name="WZGBHWZC"/>
      <point x="-38" y="596" type="line" name="SFLOLYUF"/>
    </contour>
    <contour>
      <point x="114" y="596" type="move" name="NUKKCNGE"/>
      <point x="251" y="623" type="line" name="POROMZGU"/>
      <point x="259" y="596" type="line" name="FQNYHCGX"/>
    </contour>
    <contour>
      <point x="197" y="298" type="move" name="WLHBJFXS"/>
      <point x="294" y="373" type="line" name="YKTXMTUT"/>
      <point x="298" y="298" type="line" name="FCNYPDBO"/>
    </contour>
    <contour>
      <point x="259" y="596" type="curve" name="SPFZXGDP"/>
      <point x="114" y="596" type="line" name="LTMMCMPI"/>
      <point x="145" y="565" name="NZIZXZQC"/>
      <point x="157" y="537" name="XBFMQAOK"/>
      <point x="177" y="396" type="curve" name="TGNNPPHC"/>
      <point x="-3" y="538" name="CAITDVRV"/>
      <point x="-24" y="565" name="FRVILCNK"/>
      <point x="-38" y="596" type="curve" name="KHSVYIFZ"/>
      <point x="-188" y="596" type="line" name="OPJBESQO"/>
      <point x="-139" y="565" name="JAWWJBFM"/>
      <point x="-84" y="523" name="MCGJTPCS"/>
      <point x="197" y="298" type="curve" name="XQCAUJVC"/>
      <point x="283" y="174" name="PBVORKWA"/>
      <point x="301" y="140" name="MPDJVHKZ"/>
      <point x="307" y="116" type="curve" name="ZUVQDCRA"/>
      <point x="446" y="116" type="line" name="RGXKHIMQ"/>
      <point x="416" y="140" name="CWKMISEK"/>
      <point x="388" y="172" name="HOBZMRIO"/>
      <point x="298" y="298" type="curve" name="YJCJTNDA"/>
      <point x="262" y="517" name="YARKOJPS"/>
      <point x="253" y="564" name="EBENSOGZ"/>
    </contour>
    <contour>
      <point x="166" y="864" type="move" name="BZWZQKAG"/>
      <point x="170" y="799" type="line" name="JMGOEJYY"/>
    </contour>
    <contour>
      <point x="56" y="830" type="move" name="CNWFLDXU"/>
      <point x="166" y="864" type="line" name="OVHLHUYL"/>
      <point x="169" y="830" type="line" name="CSSRQEYN"/>
    </contour>
    <contour>
      <point x="172" y="692" type="move" name="FTPSNQRM"/>
      <point x="170" y="799" type="line" name="YMITEXIS"/>
      <point x="77" y="692" type="line" name="JEGYSVFE"/>
    </contour>
    <contour>
      <point x="77" y="692" type="line" name="LHDKKCYJ"/>
      <point x="51" y="837" type="line" name="NMCUMUMO"/>
      <point x="164" y="837" type="line" name="NRQZOQGI"/>
      <point x="172" y="692" type="line" name="KCZJVOZD"/>
    </contour>
  </outline>
</glyph>
